<svg width="200" height="100" viewBox="0 0 200 100" fill="none" xmlns="http://www.w3.org/2000/svg">
<path fill-rule="evenodd" clip-rule="evenodd" d="M55.9948 62.178V45.2041H69.8368V62.178H66.4557V48.4485H59.375V62.178H55.9948ZM79.7271 52.3968H77.8082C76.2095 52.3968 75.4097 52.9649 75.4097 54.0763C75.4097 55.1654 76.1872 55.7096 77.7405 55.7096C78.4262 55.7096 79.0878 55.6652 79.7271 55.5516V52.3968ZM82.8568 49.8102V62.1771H79.7271V57.8861C79.1208 57.9962 78.4788 58.1409 77.703 58.1631L75.1128 62.1771H71.5952L74.6892 57.7263C73.0664 57.0455 72.2122 55.8694 72.2122 54.031C72.2122 51.5118 74.0615 49.8102 77.7173 49.8102H82.8568ZM104.009 50.8541C104.967 51.7843 105.447 53.0555 105.447 54.7118V62.1771H102.227V55.3013C102.227 53.4185 101.222 52.4199 99.7368 52.4199C98.1139 52.4199 96.9958 53.5774 96.9958 55.3927V62.178H93.7751V55.3252C93.7751 53.4869 92.7925 52.4199 91.2624 52.4199C89.6869 52.4199 88.5447 53.5774 88.5447 55.4158V62.178H85.324V49.8102H88.476V51.5802C89.184 50.2869 90.6454 49.448 92.2674 49.4702C93.8206 49.4702 95.2598 50.2194 95.9223 51.6485C96.8362 50.2869 98.5259 49.4702 100.376 49.4702C101.862 49.4702 103.072 49.922 104.009 50.8541ZM130.666 58.5235C131.305 57.8426 131.625 57.0038 131.625 56.0061C131.625 55.0066 131.305 54.1677 130.666 53.486C130.026 52.806 129.203 52.4652 128.176 52.4652C127.171 52.4652 126.348 52.806 125.71 53.486C125.07 54.1677 124.75 55.0066 124.75 56.0061C124.75 57.0038 125.071 57.8435 125.71 58.5244C126.349 59.2052 127.171 59.5452 128.176 59.5452C129.203 59.5452 130.026 59.2052 130.666 58.5244M133.133 51.376C134.297 52.6241 134.869 54.1677 134.869 55.983C134.869 57.7982 134.275 59.341 133.11 60.5899C131.945 61.8371 130.484 62.4718 128.724 62.4718C127.194 62.4718 125.782 61.8078 124.818 60.6326V67.2607H121.598V49.8102H124.795V51.4328C125.818 50.1652 127.171 49.4933 128.747 49.4933C130.506 49.4933 131.967 50.128 133.133 51.376ZM142.704 59.523C143.686 59.523 144.485 59.1821 145.147 58.5013C145.81 57.7982 146.153 56.9585 146.153 55.983C146.153 55.0066 145.81 54.1677 145.148 53.4869C144.485 52.806 143.686 52.4661 142.704 52.4661C141.721 52.4661 140.899 52.806 140.237 53.4869C139.575 54.1677 139.255 55.0074 139.255 55.983C139.255 56.9585 139.575 57.7982 140.237 58.5013C140.899 59.1821 141.721 59.5221 142.704 59.5221M137.907 51.376C139.164 50.1049 140.763 49.4702 142.704 49.4702C144.645 49.4702 146.244 50.1049 147.501 51.376C148.756 52.6241 149.374 54.1677 149.374 55.983C149.374 57.8204 148.756 59.3641 147.501 60.6121C146.244 61.8593 144.645 62.4958 142.704 62.4958C140.763 62.4958 139.164 61.8593 137.907 60.6121C136.65 59.3641 136.034 57.8213 136.034 55.983C136.034 54.1677 136.65 52.6241 137.907 51.376ZM158.442 49.8102H161.663V62.178H158.442V58.0148C157.499 58.5501 156.478 58.8191 155.678 58.8191C154.194 58.8191 153.097 58.5465 152.114 57.8888C151.134 57.1858 150.585 55.8694 150.585 53.9627V49.8102H153.783V53.7363C153.783 55.1885 154.536 55.9146 156.044 55.9146C156.889 55.9146 157.61 55.7975 158.443 55.4664V49.8102H158.442ZM172.308 62.178L167.351 56.4668V62.178H164.13V49.7915H167.351V54.6985L171.874 49.8102H175.94L170.389 55.5383L176.26 62.178H172.308Z" fill="#EB2316"/>
<path fill-rule="evenodd" clip-rule="evenodd" d="M184.746 53.4641C184.083 52.7601 183.26 52.4202 182.255 52.4202C181.228 52.4202 180.405 52.7601 179.743 53.4641C179.103 54.168 178.783 55.0068 178.783 55.9824C178.783 56.981 179.103 57.8207 179.766 58.5246C180.428 59.2276 181.25 59.5676 182.255 59.5676C183.26 59.5676 184.083 59.2276 184.746 58.5246C185.407 57.8207 185.751 56.981 185.751 55.9824C185.751 55.0068 185.407 54.168 184.746 53.4641ZM185.705 49.8104H188.765V62.1773H185.705V60.544C184.635 61.8329 183.307 62.4729 181.73 62.4729C179.949 62.4729 178.464 61.8605 177.299 60.6124C176.134 59.3643 175.563 57.7985 175.563 55.938C175.563 54.0765 176.157 52.5338 177.322 51.331C178.487 50.106 179.972 49.4935 181.73 49.4935C183.283 49.4935 184.654 50.1948 185.705 51.4322V49.8104ZM114.356 46.7018C114.356 45.6358 115.202 44.8413 116.298 44.8413C117.371 44.8413 118.194 45.681 118.194 46.7018C118.194 47.8141 117.371 48.6307 116.298 48.6307C115.202 48.6307 114.356 47.8141 114.356 46.7018ZM110.382 54.7352H116.71C116.413 53.1232 115.247 52.1485 113.603 52.1485C111.98 52.1485 110.77 53.1241 110.382 54.7352ZM111.319 44.8413C112.392 44.8413 113.237 45.681 113.237 46.7018C113.237 47.8141 112.415 48.6307 111.319 48.6307C110.222 48.6307 109.4 47.8141 109.4 46.7018C109.4 45.681 110.245 44.8413 111.319 44.8413ZM119.724 57.1177H110.382C110.839 58.8646 112.05 59.7496 114.014 59.7496C115.361 59.7496 116.862 59.2481 118 58.3515L119.296 60.3781C117.724 61.84 115.933 62.4499 113.877 62.4499C111.683 62.4499 110.016 61.8152 108.851 60.5671C107.687 59.3191 107.115 57.7754 107.115 55.9832C107.115 54.0996 107.709 52.5569 108.92 51.3319C110.131 50.106 111.684 49.4927 113.603 49.4927C115.408 49.4927 116.915 50.0599 118.079 51.1721C119.245 52.2844 119.838 53.7818 119.838 55.7098C119.838 56.1412 119.794 56.6188 119.724 57.1177Z" fill="#EB2316"/>
<path fill-rule="evenodd" clip-rule="evenodd" d="M29.872 32C18.2956 32 8.87793 41.3755 8.87793 52.9C8.87793 64.4245 18.2956 73.8 29.872 73.8C41.4475 73.8 50.866 64.4245 50.866 52.9C50.866 41.3755 41.4475 32 29.872 32Z" fill="white"/>
<path fill-rule="evenodd" clip-rule="evenodd" d="M40.4665 37.9092C38.8642 42.0004 35.2165 42.8517 29.9325 42.8517C29.3654 42.8517 28.8037 42.8428 28.2615 42.8348C27.7373 42.8277 27.2415 42.8197 26.7555 42.8197C26.324 42.8197 25.8888 42.8251 25.46 42.8437C26.2 41.0346 27.3815 39.8052 29.0631 39.0596C31.4073 38.021 34.455 38.0104 37.1442 38.0024C38.3159 37.9979 39.4376 37.9935 40.4665 37.9092Z" fill="#008F32"/>
<path fill-rule="evenodd" clip-rule="evenodd" d="M42.1126 39.222C39.7426 44.3615 34.4604 44.8764 29.9326 44.8764C28.9384 44.8764 27.9861 44.8524 27.1042 44.8471L25.9638 49.2872C31.8042 44.5471 39.5277 49.2463 38.702 56.3991C38.1456 61.2165 34.6958 64.3668 31.0462 65.2722C27.0703 66.2593 22.6656 64.7822 20.6905 60.7487C20.481 60.3226 20.1163 59.4687 19.9772 59.0124L24.1698 57.9401C24.2438 58.1807 24.3695 58.4132 24.5015 58.6254C27.3084 63.132 32.9963 60.8783 33.6383 56.2029C34.2919 51.4469 27.5884 48.9135 24.5336 54.472L20.8154 52.8946L20.7512 52.8662L22.5443 45.7001C22.6549 45.1906 23.0276 43.7677 23.0918 43.5342C25.1185 36.1152 31.6749 35.998 36.9339 35.9785C34.7591 35.0775 32.3748 34.5786 29.8719 34.5786C19.707 34.5786 11.4681 42.7806 11.4681 52.9C11.4681 63.0193 19.707 71.2213 29.8719 71.2213C40.0368 71.2213 48.2757 63.0193 48.2757 52.9C48.2757 47.4604 45.8932 42.5773 42.1126 39.222Z" fill="#EB2316"/>
</svg>
