<svg width="200" height="100" viewBox="0 0 200 100" fill="none" xmlns="http://www.w3.org/2000/svg">
<path d="M33.4162 72.0401H26.6666L43.6826 24.8276L49.3038 29.3966L58.9125 51.2721L57.3895 56.9833L56.1711 42.4943L48.8786 28.4828L33.4162 72.0401ZM35.9084 51.2721H57.3895V56.9833H35.9084V51.2721Z" fill="#FF0089"/>
<circle cx="35.5" cy="49.5" r="23.5" stroke="#FF0089" stroke-width="6"/>
<path d="M63.224 58L71.96 38.4H76.44L85.204 58H80.444L73.276 40.696H75.068L67.872 58H63.224ZM67.592 53.8L68.796 50.356H78.876L80.108 53.8H67.592ZM87.8032 58V38.4H105.667V58H101.159V41.06L102.195 42.096H91.2752L92.3112 41.06V58H87.8032ZM110.526 58V38.4H119.01C120.765 38.4 122.277 38.6893 123.546 39.268C124.815 39.828 125.795 40.64 126.486 41.704C127.177 42.768 127.522 44.0373 127.522 45.512C127.522 46.968 127.177 48.228 126.486 49.292C125.795 50.356 124.815 51.1773 123.546 51.756C122.277 52.316 120.765 52.596 119.01 52.596H113.046L115.062 50.552V58H110.526ZM115.062 51.056L113.046 48.9H118.758C120.158 48.9 121.203 48.6013 121.894 48.004C122.585 47.4067 122.93 46.576 122.93 45.512C122.93 44.4293 122.585 43.5893 121.894 42.992C121.203 42.3947 120.158 42.096 118.758 42.096H113.046L115.062 39.94V51.056ZM130.514 58V38.4H145.326V42.04H135.022V54.36H145.69V58H130.514ZM134.686 49.824V46.296H144.122V49.824H134.686ZM149.55 58.308C149.214 58.308 148.859 58.28 148.486 58.224C148.131 58.168 147.739 58.0933 147.31 58L147.59 54.164C147.851 54.2387 148.122 54.276 148.402 54.276C149.167 54.276 149.765 53.968 150.194 53.352C150.623 52.7173 150.931 51.812 151.118 50.636C151.305 49.46 151.426 48.032 151.482 46.352L151.762 38.4H166.826V58H162.346V41.06L163.382 42.096H154.73L155.654 41.004L155.486 46.184C155.43 48.1067 155.299 49.8147 155.094 51.308C154.889 52.8013 154.571 54.0707 154.142 55.116C153.713 56.1613 153.125 56.9547 152.378 57.496C151.631 58.0373 150.689 58.308 149.55 58.308ZM171.721 58V38.4H176.229V44.84H181.213C183.584 44.84 185.413 45.372 186.701 46.436C187.989 47.4813 188.633 49.0587 188.633 51.168C188.633 53.408 187.914 55.1067 186.477 56.264C185.058 57.4213 183.089 58 180.569 58H171.721ZM176.229 54.64H180.317C181.474 54.64 182.389 54.3507 183.061 53.772C183.733 53.1933 184.069 52.3533 184.069 51.252C184.069 50.1693 183.733 49.3947 183.061 48.928C182.408 48.4427 181.493 48.2 180.317 48.2H176.229V54.64Z" fill="#3F51B5"/>
</svg>
