<svg width="200" height="100" viewBox="0 0 200 100" fill="none" xmlns="http://www.w3.org/2000/svg">
<path d="M88.44 56.98C85.5933 56.98 83.1433 56.35 81.09 55.09C79.0833 53.83 77.5433 52.08 76.47 49.84C75.4433 47.6 74.93 45.01 74.93 42.07V13.86H85.57V42.07C85.57 43.1433 85.7333 44.1 86.06 44.94C86.3867 45.78 86.9 46.4567 87.6 46.97C88.3 47.4367 89.21 47.67 90.33 47.67C91.2633 47.67 92.15 47.5767 92.99 47.39C93.83 47.2033 94.6233 46.9467 95.37 46.62L98.38 54.39C97.3533 55.09 96 55.6967 94.32 56.21C92.64 56.7233 90.68 56.98 88.44 56.98ZM68.49 31.36V23.03H94.88V31.36H68.49ZM119.417 56.98C116.99 56.98 114.633 56.5833 112.347 55.79C110.06 54.95 108.007 53.7833 106.187 52.29C104.413 50.75 102.99 48.93 101.917 46.83C100.89 44.6833 100.377 42.28 100.377 39.62C100.377 36.96 100.89 34.5567 101.917 32.41C102.99 30.2633 104.413 28.4433 106.187 26.95C108.007 25.41 110.06 24.2433 112.347 23.45C114.633 22.61 116.99 22.19 119.417 22.19C121.797 22.19 124.107 22.61 126.347 23.45C128.633 24.2433 130.687 25.41 132.507 26.95C134.327 28.4433 135.773 30.2633 136.847 32.41C137.92 34.5567 138.457 36.96 138.457 39.62C138.457 42.28 137.943 44.6833 136.917 46.83C135.89 48.93 134.49 50.75 132.717 52.29C130.943 53.7833 128.913 54.95 126.627 55.79C124.34 56.5833 121.937 56.98 119.417 56.98ZM119.417 48.72C120.863 48.72 122.17 48.37 123.337 47.67C124.55 46.9233 125.507 45.8733 126.207 44.52C126.953 43.1667 127.327 41.5333 127.327 39.62C127.327 37.7067 126.953 36.0733 126.207 34.72C125.507 33.3667 124.55 32.34 123.337 31.64C122.17 30.8933 120.863 30.52 119.417 30.52C118.017 30.52 116.71 30.8933 115.497 31.64C114.283 32.34 113.303 33.3667 112.557 34.72C111.857 36.0733 111.507 37.7067 111.507 39.62C111.507 41.5333 111.857 43.1667 112.557 44.52C113.303 45.8733 114.283 46.9233 115.497 47.67C116.71 48.37 118.017 48.72 119.417 48.72ZM167.987 56.98C165.187 56.98 162.784 56.42 160.777 55.3C158.817 54.18 157.137 52.85 155.737 51.31C154.384 49.7233 153.217 48.3 152.237 47.04V39.83C153.217 41.1367 154.407 42.4433 155.807 43.75C157.207 45.01 158.701 46.06 160.287 46.9C161.921 47.6933 163.554 48.09 165.187 48.09C166.681 48.09 167.987 47.88 169.107 47.46C170.274 47.04 171.254 46.4567 172.047 45.71C172.841 44.9167 173.447 43.9833 173.867 42.91C174.287 41.8367 174.497 40.67 174.497 39.41C174.497 37.8233 174.171 36.4 173.517 35.14C172.911 33.88 172.001 32.9 170.787 32.2C169.621 31.4533 168.221 31.08 166.587 31.08C164.954 31.08 163.204 31.78 161.337 33.18C159.471 34.5333 157.721 36.4467 156.087 38.92C154.454 41.3933 153.124 44.2867 152.097 47.6V39.97C153.171 36.33 154.687 33.18 156.647 30.52C158.607 27.86 160.777 25.8067 163.157 24.36C165.584 22.9133 167.987 22.19 170.367 22.19C173.074 22.19 175.571 22.9367 177.857 24.43C180.191 25.9233 182.057 27.9767 183.457 30.59C184.904 33.2033 185.627 36.19 185.627 39.55C185.627 42.0233 185.184 44.3333 184.297 46.48C183.457 48.58 182.244 50.4233 180.657 52.01C179.071 53.55 177.204 54.7633 175.057 55.65C172.911 56.5367 170.554 56.98 167.987 56.98ZM140.547 71.26V62.93H163.857V71.26H140.547ZM147.057 68.6V23.03H157.487V68.6H147.057ZM140.547 31.36V23.03H156.997V31.36H140.547Z" fill="black"/>
<rect width="64" height="58" fill="#9400D4"/>
<path d="M30.25 20.6193V14.9091H54.8381V20.6193H46.017V44H39.0852V20.6193H30.25Z" fill="white"/>
<path d="M22.233 14.9091V44H15.2017V14.9091H22.233Z" fill="white"/>
<rect x="143" width="57" height="9" fill="#9400D4"/>
<rect x="200" width="56" height="9" transform="rotate(90 200 0)" fill="#9400D4"/>
<path d="M34.4904 86.3658H30.3168C30.2732 85.9519 30.167 85.579 29.9982 85.2468C29.8349 84.9147 29.6171 84.6315 29.3448 84.3974C29.0726 84.1578 28.7486 83.9754 28.3729 83.8501C28.0026 83.7195 27.5915 83.6541 27.1396 83.6541C26.3337 83.6541 25.6422 83.8501 25.065 84.2422C24.4933 84.6342 24.0549 85.2032 23.75 85.9492C23.4451 86.6897 23.2926 87.5855 23.2926 88.6364C23.2926 89.7308 23.4451 90.6483 23.75 91.3888C24.0604 92.1294 24.5014 92.6875 25.0732 93.0632C25.6503 93.4335 26.3282 93.6186 27.1069 93.6186C27.5479 93.6186 27.9509 93.5614 28.3157 93.4471C28.6805 93.3327 28.9991 93.1667 29.2713 92.9489C29.5436 92.7311 29.7695 92.467 29.9492 92.1566C30.1289 91.8462 30.2514 91.4923 30.3168 91.0948L34.4904 91.1193C34.4196 91.8544 34.2073 92.584 33.8533 93.3082C33.4994 94.027 33.0094 94.6831 32.3832 95.2766C31.7624 95.8701 31.0056 96.3439 30.1126 96.6978C29.2196 97.0517 28.1905 97.2287 27.0252 97.2287C25.5115 97.2287 24.1529 96.8965 22.9496 96.2322C21.7517 95.5679 20.8042 94.596 20.1072 93.3164C19.4157 92.0314 19.07 90.4714 19.07 88.6364C19.07 86.7905 19.4212 85.2305 20.1236 83.9563C20.8314 82.6767 21.7871 81.7048 22.9904 81.0405C24.1938 80.3762 25.5387 80.044 27.0252 80.044C28.0489 80.044 28.9909 80.1856 29.8512 80.4688C30.717 80.7464 31.4766 81.1548 32.13 81.6939C32.7888 82.233 33.3224 82.8945 33.7308 83.6786C34.1392 84.4627 34.3924 85.3584 34.4904 86.3658ZM62.3991 88.6364C62.3991 90.4822 62.0452 92.045 61.3374 93.3246C60.6295 94.5987 59.6684 95.5679 58.4542 96.2322C57.2454 96.8965 55.8923 97.2287 54.3949 97.2287C52.8866 97.2287 51.5281 96.8965 50.3192 96.2322C49.1104 95.5625 48.1521 94.5878 47.4442 93.3082C46.7364 92.0286 46.3825 90.4714 46.3825 88.6364C46.3825 86.7905 46.7364 85.2305 47.4442 83.9563C48.1521 82.6767 49.1104 81.7048 50.3192 81.0405C51.5281 80.3762 52.8866 80.044 54.3949 80.044C55.8923 80.044 57.2454 80.3762 58.4542 81.0405C59.6684 81.7048 60.6295 82.6767 61.3374 83.9563C62.0452 85.2305 62.3991 86.7905 62.3991 88.6364ZM58.1847 88.6364C58.1847 87.5582 58.0349 86.6489 57.7354 85.9084C57.436 85.1678 57.0031 84.607 56.4368 84.2259C55.8705 83.8447 55.1899 83.6541 54.3949 83.6541C53.5999 83.6541 52.9193 83.8447 52.353 84.2259C51.7867 84.607 51.3538 85.1678 51.0543 85.9084C50.7549 86.6489 50.6051 87.5582 50.6051 88.6364C50.6051 89.7145 50.7549 90.6238 51.0543 91.3643C51.3538 92.1049 51.7867 92.6657 52.353 93.0469C52.9193 93.428 53.5999 93.6186 54.3949 93.6186C55.1899 93.6186 55.8705 93.428 56.4368 93.0469C57.0031 92.6657 57.436 92.1049 57.7354 91.3643C58.0349 90.6238 58.1847 89.7145 58.1847 88.6364ZM74.5097 97V80.2727H78.6343V93.6513H85.5686V97H74.5097ZM97.3974 97V80.2727H101.522V93.6513H108.456V97H97.3974ZM120.285 97V80.2727H132.014V83.6214H124.41V86.962H131.409V90.3107H124.41V93.6513H132.014V97H120.285ZM155.257 85.745C155.17 85.4129 155.036 85.1188 154.857 84.8629C154.682 84.6016 154.467 84.381 154.211 84.2013C153.961 84.0217 153.67 83.8855 153.337 83.793C153.005 83.7004 152.64 83.6541 152.243 83.6541C151.442 83.6541 150.751 83.8501 150.168 84.2422C149.586 84.6288 149.136 85.1924 148.821 85.9329C148.51 86.668 148.355 87.561 148.355 88.6119C148.355 89.6682 148.505 90.5721 148.804 91.3235C149.109 92.0695 149.55 92.6385 150.127 93.0305C150.71 93.4226 151.413 93.6186 152.235 93.6186C152.97 93.6186 153.591 93.5015 154.097 93.2674C154.603 93.0278 154.987 92.6929 155.249 92.2628C155.51 91.8272 155.641 91.3153 155.641 90.7273L156.392 90.8171H152.365V87.8196H159.61V90.0494C159.61 91.5522 159.292 92.84 158.654 93.9126C158.023 94.9799 157.149 95.7994 156.033 96.3711C154.922 96.9428 153.648 97.2287 152.21 97.2287C150.604 97.2287 149.194 96.8829 147.979 96.1914C146.771 95.4999 145.826 94.5143 145.145 93.2347C144.47 91.9497 144.132 90.4251 144.132 88.6609C144.132 87.2887 144.337 86.0717 144.745 85.0099C145.159 83.9427 145.733 83.0388 146.468 82.2983C147.203 81.5578 148.056 80.9969 149.025 80.6158C150 80.2346 151.045 80.044 152.161 80.044C153.136 80.044 154.04 80.1829 154.873 80.4606C155.711 80.7383 156.455 81.133 157.103 81.6449C157.751 82.1513 158.276 82.753 158.679 83.4499C159.082 84.1469 159.332 84.9119 159.43 85.745H155.257ZM171.743 97V80.2727H183.472V83.6214H175.868V86.962H182.867V90.3107H175.868V93.6513H183.472V97H171.743Z" fill="black"/>
</svg>
