<svg width="200" height="100" viewBox="0 0 200 100" fill="none" xmlns="http://www.w3.org/2000/svg">
<path d="M129.063 30.6117C129.068 34.956 127.687 39.222 125.064 42.9639C125.064 42.9639 114.972 45.9591 100.09 45.9591C85.2086 45.9591 75.1167 42.9639 75.1167 42.9639C72.8601 39.7341 71.519 36.1101 71.1975 32.3734C70.8758 28.6369 71.5824 24.8882 73.2623 21.4185C74.9425 17.949 77.5505 14.8519 80.8841 12.368C84.2176 9.88402 88.1869 8.07999 92.4837 7.0962C96.7806 6.11232 101.289 5.97505 105.659 6.69503C110.029 7.41501 114.143 8.97282 117.682 11.2476C121.22 13.5224 124.087 16.4527 126.061 19.8109C128.034 23.1692 129.063 26.8653 129.063 30.6117Z" fill="#FF6A00"/>
<path d="M113.071 33.351C113.071 33.1722 112.986 33.0006 112.836 32.8741C112.686 32.7477 112.482 32.6767 112.269 32.6767H110.694V16.1251C110.694 15.9463 110.609 15.7747 110.459 15.6483C110.309 15.5218 110.105 15.4508 109.892 15.4508H95.3075H94.0542C93.6969 15.4412 93.3398 15.4755 92.9941 15.5525C92.7058 15.6129 92.447 15.7477 92.254 15.9378C92.0519 16.1771 91.9525 16.4671 91.9719 16.7602V18.5441C91.9719 19.1388 91.9614 19.7876 91.9402 20.4905C91.9169 21.188 91.8659 24.6774 91.7853 25.4052C91.7048 26.1331 91.5882 26.8556 91.4355 27.5709C91.2894 28.2613 91.0802 28.9413 90.81 29.6046C90.5616 30.2217 90.2307 30.813 89.824 31.3673C89.5321 31.7643 89.1752 32.1247 88.7637 32.4376C88.5716 32.5815 88.3348 32.6762 88.0808 32.7106C87.8617 32.7383 87.6515 32.8038 87.4639 32.9032C87.2221 33.0388 87.1034 33.326 87.1034 33.7666V39.718C87.1034 39.8969 87.1879 40.0684 87.3381 40.1948C87.4885 40.3213 87.6924 40.3924 87.905 40.3924H92.606C92.8186 40.3924 93.0224 40.3213 93.1728 40.1948C93.3231 40.0684 93.4075 39.8969 93.4075 39.718V36.9778H106.718V39.718C106.718 39.8969 106.802 40.0684 106.953 40.1948C107.103 40.3213 107.307 40.3924 107.519 40.3924H112.265C112.478 40.3924 112.681 40.3213 112.832 40.1948C112.982 40.0684 113.067 39.8969 113.067 39.718V33.3671L113.071 33.351ZM104.387 32.6767H95.441C95.9409 32.054 96.3308 31.3738 96.5988 30.6572C96.906 29.868 97.1462 29.0614 97.3177 28.2434C97.4916 27.4181 97.6153 26.61 97.6889 25.819C97.7609 25.0306 97.7969 21.5661 97.7969 20.9792V19.7928H104.387V32.6767Z" fill="white"/>
<path d="M76.4409 44.6777C79.1143 47.8614 82.657 50.4585 86.7712 52.2511C90.8854 54.0438 95.451 54.9793 100.084 54.9793C104.717 54.9793 109.283 54.0438 113.397 52.2511C117.511 50.4585 121.054 47.8614 123.728 44.6777C123.728 44.6777 112.014 48.053 100.08 48.053C88.1459 48.053 76.4409 44.6777 76.4409 44.6777Z" fill="#74AF0D"/>
<path d="M100.089 48.0525C112.022 48.0525 123.736 44.6772 123.736 44.6772C123.736 44.6772 113.802 51.4277 99.9139 51.4277C86.026 51.4277 76.4409 44.6772 76.4409 44.6772C76.4409 44.6772 88.1523 48.0525 100.089 48.0525Z" fill="#94CC00"/>
<path d="M51.6939 85.3456H41.7516C42.3064 84.6537 42.7386 83.8976 43.0347 83.1011C43.376 82.2232 43.6436 81.3263 43.8357 80.4169C44.0276 79.4974 44.1651 78.5997 44.2482 77.7233C44.3288 76.8457 44.3691 72.9922 44.3691 72.3396V71.0129H51.7013L51.6939 85.3456ZM60.4558 85.3456H58.6998V66.9245C58.6998 66.826 58.6766 66.7286 58.6319 66.6376C58.5872 66.5467 58.5216 66.4639 58.4387 66.3944C58.356 66.3248 58.2579 66.2695 58.1499 66.2319C58.0417 66.1942 57.9259 66.1747 57.809 66.1747H41.6012C41.1123 66.1747 40.648 66.1717 40.208 66.1656C39.8083 66.1541 39.4087 66.192 39.0221 66.2782C38.7016 66.3461 38.4136 66.4953 38.1972 66.7055C37.9974 66.9106 37.8948 67.2223 37.8948 67.6449V69.6242C37.8948 70.2916 37.8825 71.0114 37.8581 71.7838C37.8343 72.5552 37.7774 76.4396 37.6876 77.2478C37.5978 78.0562 37.4695 78.8661 37.299 79.662C37.1363 80.4307 36.904 81.1878 36.6043 81.9266C36.3272 82.6127 35.9582 83.2699 35.5045 83.8858C35.1726 84.341 34.7638 84.753 34.291 85.109C34.0978 85.2491 33.8613 85.3399 33.6091 85.3714C33.3517 85.3993 33.1047 85.4739 32.8851 85.5904C32.6199 85.7395 32.4873 86.0594 32.4873 86.5499V93.1571V93.1679C32.4878 93.3665 32.5818 93.5569 32.7488 93.6975C32.9157 93.838 33.142 93.9172 33.3782 93.9175H38.6042C38.8404 93.9175 39.067 93.8386 39.2341 93.698C39.4012 93.5574 39.495 93.3667 39.495 93.1679V90.1211H54.2877V93.1571V93.1679C54.2882 93.3665 54.3822 93.5569 54.5491 93.6975C54.7161 93.838 54.9424 93.9172 55.1785 93.9175H60.4541C60.6902 93.9172 60.9165 93.838 61.0833 93.6975C61.2503 93.5569 61.3444 93.3665 61.3449 93.1679V93.1571V86.1041V86.0948C61.3444 85.8961 61.2503 85.7057 61.0833 85.5651C60.9165 85.4246 60.6902 85.3455 60.4541 85.3452" fill="#FF6A00"/>
<path d="M107.673 76.5211L116.838 67.7698C116.98 67.6361 117.073 67.4704 117.106 67.293C117.138 67.1157 117.108 66.9341 117.02 66.7707C116.932 66.6073 116.79 66.4689 116.61 66.3724C116.43 66.2758 116.221 66.2254 116.008 66.2271H110.371C110.212 66.2269 110.055 66.2557 109.91 66.3116C109.765 66.3676 109.637 66.4493 109.534 66.5511L99.8625 76.0228V67.1542C99.8625 66.9088 99.7465 66.6734 99.5403 66.4998C99.3339 66.3262 99.0543 66.2286 98.7626 66.2286H94.0516C93.7599 66.2286 93.4803 66.3262 93.2739 66.4998C93.0677 66.6734 92.9519 66.9088 92.9519 67.1542V89.7822C92.9519 90.0277 93.0677 90.2631 93.2739 90.4367C93.4803 90.6103 93.7599 90.7078 94.0516 90.7078H98.7589C99.0506 90.7078 99.3303 90.6103 99.5365 90.4367C99.7429 90.2631 99.8587 90.0277 99.8587 89.7822V83.4791L102.944 80.6158L109.869 90.2636C109.967 90.4011 110.106 90.5147 110.272 90.5934C110.438 90.6721 110.626 90.7132 110.817 90.7124H116.156C116.354 90.7138 116.548 90.6705 116.719 90.5867C116.89 90.503 117.031 90.382 117.127 90.2366C117.223 90.0912 117.271 89.9267 117.265 89.7604C117.259 89.5942 117.201 89.4323 117.095 89.2916L107.673 76.5211Z" fill="#FF6A00"/>
<path d="M139.375 84.1477C139.214 84.0641 139.029 84.017 138.84 84.011C138.65 84.005 138.462 84.0404 138.294 84.1137C135.976 85.1094 133.408 85.6234 130.806 85.6132C125.908 85.6132 122.352 82.6097 122.352 78.4677C122.352 74.2609 125.875 71.3222 130.918 71.3222C133.359 71.3222 135.711 71.8236 138.107 72.854C138.275 72.9288 138.464 72.9655 138.654 72.9606C138.845 72.9556 139.03 72.909 139.193 72.8255C139.356 72.742 139.49 72.6245 139.582 72.4841C139.674 72.344 139.722 72.1859 139.72 72.0257V68.3481C139.721 68.1831 139.669 68.0212 139.57 67.8789C139.472 67.7365 139.33 67.6188 139.159 67.5382C138.309 67.134 135.196 65.8149 130.738 65.8149C121.998 65.8149 115.406 71.2543 115.406 78.4646C115.406 85.6749 121.949 91.1142 130.621 91.1142C135.651 91.1142 138.981 89.5948 139.344 89.4172C139.515 89.3366 139.657 89.2189 139.756 89.0766C139.854 88.9342 139.906 88.7723 139.905 88.6074V84.9437C139.906 84.7842 139.858 84.6272 139.765 84.4881C139.673 84.3489 139.539 84.2321 139.377 84.1492" fill="#FF6A00"/>
<path d="M66.1123 66.2245H70.7426C71.0343 66.2245 71.3141 66.3219 71.5203 66.4955C71.7266 66.6692 71.8424 66.9045 71.8424 67.15V79.1656L86.9431 66.1581C87.0462 66.0699 87.1692 65.9999 87.3048 65.9521C87.4404 65.9041 87.586 65.8792 87.733 65.8789H87.8833C88.175 65.8789 88.4548 65.9764 88.6609 66.15C88.8673 66.3236 88.9831 66.559 88.9831 66.8044V89.7817C88.9831 90.0272 88.8673 90.2626 88.6609 90.4362C88.4548 90.6098 88.175 90.7073 87.8833 90.7073H83.2623C82.9705 90.7073 82.6908 90.6098 82.4846 90.4362C82.2782 90.2626 82.1624 90.0272 82.1624 89.7817V77.74L67.0308 90.7782C66.9278 90.8671 66.8044 90.9376 66.6685 90.9855C66.5323 91.0335 66.3864 91.058 66.2388 91.0575H66.1269C65.8354 91.0575 65.5556 90.9599 65.3492 90.7863C65.1431 90.6128 65.0272 90.3773 65.0272 90.1319V67.1546C65.0272 66.9092 65.1431 66.6736 65.3492 66.5002C65.5556 66.3266 65.8354 66.229 66.1269 66.229" fill="#FF6A00"/>
<path d="M144.814 66.2245H149.445C149.736 66.2245 150.016 66.3219 150.222 66.4955C150.429 66.6692 150.544 66.9045 150.544 67.15V79.1656L165.647 66.1581C165.75 66.0698 165.873 65.9997 166.009 65.9518C166.144 65.9038 166.29 65.8791 166.437 65.8789H166.585C166.877 65.8789 167.157 65.9764 167.363 66.15C167.569 66.3236 167.685 66.559 167.685 66.8044V89.7817C167.685 90.0272 167.569 90.2626 167.363 90.4362C167.157 90.6098 166.877 90.7073 166.585 90.7073H161.955C161.663 90.7073 161.384 90.6098 161.177 90.4362C160.971 90.2626 160.855 90.0272 160.855 89.7817V77.74L145.723 90.7782C145.62 90.8671 145.497 90.9376 145.361 90.9855C145.225 91.0335 145.079 91.058 144.932 91.0575H144.82C144.528 91.0575 144.248 90.9599 144.042 90.7863C143.836 90.6128 143.72 90.3773 143.72 90.1319V67.1546C143.72 66.9092 143.836 66.6736 144.042 66.5002C144.248 66.3266 144.528 66.229 144.82 66.229" fill="#FF6A00"/>
</svg>
