<svg width="200" height="100" viewBox="0 0 200 100" fill="none" xmlns="http://www.w3.org/2000/svg">
<path d="M88.44 56.98C85.5933 56.98 83.1433 56.35 81.09 55.09C79.0833 53.83 77.5433 52.08 76.47 49.84C75.4433 47.6 74.93 45.01 74.93 42.07V13.86H85.57V42.07C85.57 43.1433 85.7333 44.1 86.06 44.94C86.3867 45.78 86.9 46.4567 87.6 46.97C88.3 47.4367 89.21 47.67 90.33 47.67C91.2633 47.67 92.15 47.5767 92.99 47.39C93.83 47.2033 94.6233 46.9467 95.37 46.62L98.38 54.39C97.3533 55.09 96 55.6967 94.32 56.21C92.64 56.7233 90.68 56.98 88.44 56.98ZM68.49 31.36V23.03H94.88V31.36H68.49ZM119.417 56.98C116.99 56.98 114.633 56.5833 112.347 55.79C110.06 54.95 108.007 53.7833 106.187 52.29C104.413 50.75 102.99 48.93 101.917 46.83C100.89 44.6833 100.377 42.28 100.377 39.62C100.377 36.96 100.89 34.5567 101.917 32.41C102.99 30.2633 104.413 28.4433 106.187 26.95C108.007 25.41 110.06 24.2433 112.347 23.45C114.633 22.61 116.99 22.19 119.417 22.19C121.797 22.19 124.107 22.61 126.347 23.45C128.633 24.2433 130.687 25.41 132.507 26.95C134.327 28.4433 135.773 30.2633 136.847 32.41C137.92 34.5567 138.457 36.96 138.457 39.62C138.457 42.28 137.943 44.6833 136.917 46.83C135.89 48.93 134.49 50.75 132.717 52.29C130.943 53.7833 128.913 54.95 126.627 55.79C124.34 56.5833 121.937 56.98 119.417 56.98ZM119.417 48.72C120.863 48.72 122.17 48.37 123.337 47.67C124.55 46.9233 125.507 45.8733 126.207 44.52C126.953 43.1667 127.327 41.5333 127.327 39.62C127.327 37.7067 126.953 36.0733 126.207 34.72C125.507 33.3667 124.55 32.34 123.337 31.64C122.17 30.8933 120.863 30.52 119.417 30.52C118.017 30.52 116.71 30.8933 115.497 31.64C114.283 32.34 113.303 33.3667 112.557 34.72C111.857 36.0733 111.507 37.7067 111.507 39.62C111.507 41.5333 111.857 43.1667 112.557 44.52C113.303 45.8733 114.283 46.9233 115.497 47.67C116.71 48.37 118.017 48.72 119.417 48.72ZM167.987 56.98C165.187 56.98 162.784 56.42 160.777 55.3C158.817 54.18 157.137 52.85 155.737 51.31C154.384 49.7233 153.217 48.3 152.237 47.04V39.83C153.217 41.1367 154.407 42.4433 155.807 43.75C157.207 45.01 158.701 46.06 160.287 46.9C161.921 47.6933 163.554 48.09 165.187 48.09C166.681 48.09 167.987 47.88 169.107 47.46C170.274 47.04 171.254 46.4567 172.047 45.71C172.841 44.9167 173.447 43.9833 173.867 42.91C174.287 41.8367 174.497 40.67 174.497 39.41C174.497 37.8233 174.171 36.4 173.517 35.14C172.911 33.88 172.001 32.9 170.787 32.2C169.621 31.4533 168.221 31.08 166.587 31.08C164.954 31.08 163.204 31.78 161.337 33.18C159.471 34.5333 157.721 36.4467 156.087 38.92C154.454 41.3933 153.124 44.2867 152.097 47.6V39.97C153.171 36.33 154.687 33.18 156.647 30.52C158.607 27.86 160.777 25.8067 163.157 24.36C165.584 22.9133 167.987 22.19 170.367 22.19C173.074 22.19 175.571 22.9367 177.857 24.43C180.191 25.9233 182.057 27.9767 183.457 30.59C184.904 33.2033 185.627 36.19 185.627 39.55C185.627 42.0233 185.184 44.3333 184.297 46.48C183.457 48.58 182.244 50.4233 180.657 52.01C179.071 53.55 177.204 54.7633 175.057 55.65C172.911 56.5367 170.554 56.98 167.987 56.98ZM140.547 71.26V62.93H163.857V71.26H140.547ZM147.057 68.6V23.03H157.487V68.6H147.057ZM140.547 31.36V23.03H156.997V31.36H140.547Z" fill="black"/>
<rect width="64" height="58" fill="#EB5F3B"/>
<path d="M30.25 20.6193V14.9091H54.8381V20.6193H46.017V44H39.0852V20.6193H30.25Z" fill="white"/>
<path d="M22.233 14.9091V44H15.2017V14.9091H22.233Z" fill="white"/>
<rect x="143" width="57" height="9" fill="#EB5F3B"/>
<rect x="200" width="56" height="9" transform="rotate(90 200 0)" fill="#EB5F3B"/>
<path d="M18.2333 97V80.2727H29.962V83.6214H22.358V86.962H29.3576V90.3107H22.358V93.6513H29.962V97H18.2333ZM56.521 80.2727V97H53.0335L46.4749 87.4847H46.3687V97H42.2441V80.2727H45.7888L52.2657 89.7717H52.4046V80.2727H56.521ZM79.7314 85.745C79.6442 85.4129 79.5108 85.1188 79.3311 84.8629C79.1569 84.6016 78.9418 84.381 78.6859 84.2013C78.4354 84.0217 78.1441 83.8855 77.812 83.793C77.4798 83.7004 77.115 83.6541 76.7175 83.6541C75.9171 83.6541 75.2256 83.8501 74.6429 84.2422C74.0603 84.6288 73.6111 85.1924 73.2953 85.9329C72.9849 86.668 72.8297 87.561 72.8297 88.6119C72.8297 89.6682 72.9795 90.5721 73.2789 91.3235C73.5839 92.0695 74.0249 92.6385 74.6021 93.0305C75.1847 93.4226 75.8871 93.6186 76.7093 93.6186C77.4444 93.6186 78.0652 93.5015 78.5716 93.2674C79.0779 93.0278 79.4618 92.6929 79.7232 92.2628C79.9846 91.8272 80.1152 91.3153 80.1152 90.7273L80.8667 90.8171H76.84V87.8196H84.0847V90.0494C84.0847 91.5522 83.7662 92.84 83.1291 93.9126C82.4975 94.9799 81.6235 95.7994 80.5073 96.3711C79.3965 96.9428 78.1223 97.2287 76.6848 97.2287C75.0785 97.2287 73.6683 96.8829 72.454 96.1914C71.2452 95.4999 70.3005 94.5143 69.6199 93.2347C68.9447 91.9497 68.6071 90.4251 68.6071 88.6609C68.6071 87.2887 68.8113 86.0717 69.2196 85.0099C69.6335 83.9427 70.2079 83.0388 70.943 82.2983C71.6781 81.5578 72.5302 80.9969 73.4995 80.6158C74.4741 80.2346 75.5196 80.044 76.6358 80.044C77.6105 80.044 78.5144 80.1829 79.3475 80.4606C80.186 80.7383 80.9293 81.133 81.5772 81.6449C82.2252 82.1513 82.7507 82.753 83.1536 83.4499C83.5565 84.1469 83.807 84.9119 83.905 85.745H79.7314ZM96.2177 97V80.2727H100.342V93.6513H107.277V97H96.2177ZM123.23 80.2727V97H119.105V80.2727H123.23ZM144.521 85.3203C144.467 84.7322 144.23 84.2721 143.81 83.94C143.397 83.6078 142.798 83.4418 142.013 83.4418C141.502 83.4418 141.074 83.5098 140.731 83.646C140.394 83.7766 140.14 83.9563 139.972 84.185C139.803 84.4137 139.716 84.6751 139.71 84.9691C139.699 85.2141 139.746 85.4319 139.849 85.6225C139.958 85.8076 140.119 85.971 140.331 86.1126C140.543 86.2541 140.799 86.3794 141.099 86.4883C141.404 86.5917 141.747 86.6843 142.128 86.766L143.557 87.0927C144.401 87.2724 145.142 87.5147 145.779 87.8196C146.416 88.1191 146.949 88.4785 147.38 88.8977C147.815 89.317 148.142 89.7962 148.36 90.3352C148.578 90.8743 148.689 91.4732 148.695 92.1321C148.689 93.1993 148.42 94.1114 147.886 94.8683C147.358 95.6251 146.598 96.205 145.607 96.608C144.616 97.0109 143.424 97.2124 142.03 97.2124C140.614 97.2124 139.384 97.0027 138.338 96.5835C137.293 96.1587 136.479 95.5162 135.896 94.6559C135.319 93.7901 135.022 92.6984 135.006 91.3807H138.951C138.983 91.9143 139.125 92.3608 139.375 92.7202C139.626 93.0795 139.972 93.3518 140.413 93.5369C140.859 93.7166 141.379 93.8065 141.973 93.8065C142.506 93.8065 142.961 93.7357 143.337 93.5941C143.712 93.4525 143.998 93.2565 144.194 93.006C144.396 92.7501 144.499 92.4561 144.505 92.1239C144.499 91.819 144.404 91.5576 144.219 91.3398C144.034 91.122 143.745 90.9315 143.353 90.7681C142.966 90.5993 142.465 90.4441 141.85 90.3026L140.119 89.9023C138.67 89.5702 137.527 89.0339 136.688 88.2933C135.85 87.5473 135.433 86.5373 135.439 85.2631C135.433 84.2177 135.711 83.3056 136.272 82.527C136.838 81.7429 137.619 81.133 138.616 80.6974C139.612 80.2618 140.75 80.044 142.03 80.044C143.331 80.044 144.461 80.2646 145.419 80.7056C146.383 81.1467 147.129 81.7647 147.657 82.5597C148.185 83.3492 148.455 84.2694 148.466 85.3203H144.521ZM160.478 97V80.2727H164.603V86.962H171.104V80.2727H175.221V97H171.104V90.3107H164.603V97H160.478Z" fill="black"/>
</svg>
