<svg width="200" height="100" viewBox="0 0 200 100" fill="none" xmlns="http://www.w3.org/2000/svg">
<g clip-path="url(#clip0_49_317)">
<path d="M130.82 13.3661C136.341 11.2569 139.077 11.5337 139.138 13.6716C139.212 16.449 138.684 20.1423 138.304 22.8147C136.255 37.3396 132.831 49.2085 132.574 64.1218C141.592 45.9616 149.149 33.3398 158.891 17.7946C161.983 12.8412 163.958 13.7671 166.498 12.889C176.387 9.46275 176.755 11.5624 175.466 15.7522C170.669 31.2707 158.388 80.1316 156.511 87.6553C155.971 89.8321 152.928 88.9093 152.143 88.0581C148.622 84.2691 144.647 84.2099 145.088 81.6903C147.297 69.1466 155.247 37.6746 157.321 30.2589C146.757 47.1059 135.801 68.1665 130.169 80.108C128.979 82.6437 126.807 82.4577 125.458 80.6023C123.556 77.996 119.863 76.6654 119.249 73.5855C117.323 63.7936 121.458 45.1294 122.034 33.3216C116.281 46.2202 106.625 71.2625 102.392 82.5768C100.65 87.2582 94.8339 86.4945 96.3797 81.9318C102.809 62.944 116.661 29.3618 122.648 17.2887C124.06 14.4445 127.752 14.5399 130.82 13.3661Z" fill="#CC071E"/>
<path d="M95.7546 11.0371C93.8898 10.6841 88.479 12.9555 85.154 13.404C84.0989 13.5472 83.0928 14.4156 82.7369 15.0361C77.412 24.5514 72.6394 33.6219 68.5047 41.885C63.2167 42.5875 57.0333 43.5123 50.1135 44.7214C55.0701 34.831 60.076 25.0761 64.9591 15.6945C67.3637 11.0751 61.0331 10.6362 58.5791 15.3127C55.389 21.3923 49.414 32.783 42.8009 46.0596C37.9423 46.9862 32.7894 48.0455 27.4031 49.2558C23.4891 50.1348 23.3298 50.946 25.023 52.7718C25.9554 53.7884 27.8817 53.686 28.7649 54.4104C31.0471 56.2878 32.4335 58.5334 36.5189 58.8733C32.875 66.4558 29.2311 74.2753 25.9307 81.8044C23.8573 86.5306 29.7586 87.4973 32.0286 82.4962C35.6847 74.4345 39.5373 66.2753 43.5002 58.1401C46.8005 57.5435 54.7876 56.2054 62.1613 54.9609C56.309 67.4385 52.4563 76.9148 50.9965 81.5275C50.7266 82.4149 51.1805 82.9075 51.4259 83.2692C53.4011 85.5053 55.2783 85.5969 57.8181 88.3617C58.5053 89.1157 60.812 89.5223 61.597 87.666C67.0199 74.9238 72.6024 62.9682 77.8044 52.2502C79.9637 51.8828 83.853 51.1527 86.2332 48.3897C90.4659 43.4859 91.6805 44.4805 92.6991 42.9897C93.9751 41.1182 93.1284 39.3611 88.6136 39.7953C88.6136 39.7953 86.9081 39.8897 83.7549 40.1693C88.7607 30.1435 93.1407 21.6398 96.2939 15.1596C97.3741 12.965 97.5091 11.3616 95.7546 11.0371Z" fill="#CC071E"/>
<path d="M88.3686 76.0635C89.5342 78.3549 93.1781 77.661 91.7917 74.8954C90.3805 72.0778 86.8717 63.5961 85.9513 60.8637C84.7 57.1817 90.1229 58.1886 87.3746 60.5957C85.0191 62.6656 83.4484 63.495 79.093 67.4309C74.8848 71.2304 76.0258 76.1609 80.5286 77.2499C85.6079 78.4791 90.0863 74.1252 92.859 70.9309C95.5459 67.8377 92.9447 66.0234 90.2334 67.8521C88.4911 69.0279 86.479 70.8335 84.4422 71.807C82.7859 72.5905 81.4853 71.7488 83.6939 69.3839C86.2581 66.6458 89.129 64.3514 91.2638 61.764C95.6194 56.4909 87.0064 53.4513 83.3011 56.8765C81.3135 58.7023 81.8166 60.4948 82.3565 62.0331C83.2277 64.4973 86.4668 72.3635 88.3686 76.0635Z" fill="#CC071E"/>
</g>
<defs>
<clipPath id="clip0_49_317">
<rect width="152" height="78" fill="white" transform="translate(24 11)"/>
</clipPath>
</defs>
</svg>
