<svg width="100" height="100" viewBox="0 0 100 100" fill="none" xmlns="http://www.w3.org/2000/svg">
<path d="M93.75 0H6.25C2.79822 0 0 3.09957 0 6.92308V93.0769C0 96.9004 2.79822 100 6.25 100H93.75C97.2018 100 100 96.9004 100 93.0769V6.92308C100 3.09957 97.2018 0 93.75 0Z" fill="#111111"/>
<path d="M36.9862 6.896H26.0273V91.3787H36.9862V6.896Z" fill="#F8F3E7"/>
<path d="M19.178 6.896H8.21912V91.3787H19.178V6.896Z" fill="#F8F3E7"/>
<path d="M56.1643 6.896H45.2054V91.3787H56.1643V6.896Z" fill="#F8F3E7"/>
<path d="M73.9725 6.896H63.0135V91.3787H73.9725V6.896Z" fill="#F8F3E7"/>
<path d="M93.1507 6.896H82.1918V91.3787H93.1507V6.896Z" fill="#F8F3E7"/>
<path d="M61.0274 31.0347H38.9726C36.3625 31.0347 34.2466 32.9645 34.2466 35.345V61.2071C34.2466 63.5876 36.3625 65.5174 38.9726 65.5174H61.0274C63.6375 65.5174 65.7534 63.5876 65.7534 61.2071V35.345C65.7534 32.9645 63.6375 31.0347 61.0274 31.0347Z" fill="#111111"/>
<path d="M50.6849 50.0001C53.7111 50.0001 56.1643 46.9124 56.1643 43.1036C56.1643 39.2947 53.7111 36.207 50.6849 36.207C47.6587 36.207 45.2054 39.2947 45.2054 43.1036C45.2054 46.9124 47.6587 50.0001 50.6849 50.0001Z" fill="#F8F3E7"/>
<path d="M47.2602 46.5518H54.1096L56.1643 58.6207H45.2054L47.2602 46.5518Z" fill="#F8F3E7"/>
</svg>
