<svg width="200" height="100" viewBox="0 0 200 100" fill="none" xmlns="http://www.w3.org/2000/svg">
<path d="M18.9289 63.9046H22.2867V41.5322H17.4104C12.4913 41.5322 9.90348 44.4665 9.90348 48.7751C9.90348 52.217 11.315 54.2475 13.8494 56.3398L9.45435 63.9046H13.0902L17.9772 55.436L16.2876 54.1237C14.2237 52.5141 13.2292 51.2513 13.2292 48.5522C13.2292 46.1751 14.6728 44.5656 17.4211 44.5656H18.9182V63.9046H18.9289ZM63.0936 62.8151V59.6827C61.7875 60.644 60.2781 61.1709 58.7306 61.2056C56.3139 61.2056 55.3942 59.8808 55.2552 57.1818H63.2434V55.1513C63.2434 49.5179 61.1046 47.3884 57.7896 47.3884C53.7581 47.3884 51.8439 50.9665 51.8439 55.857C51.8439 61.4903 54.2286 64.2265 58.4526 64.2265C60.5699 64.2265 62.1312 63.5827 63.1043 62.8151H63.0936ZM83.7858 64.2265C85.315 64.2265 86.3951 63.9046 87.2078 63.236V60.1037C86.2619 60.864 85.1292 61.2505 83.9783 61.2056C81.615 61.2056 80.6419 59.076 80.6419 55.7332C80.6419 52.217 81.8396 50.4094 84.0104 50.4094C85.2936 50.4094 86.5341 50.9294 87.2078 51.4122V48.1808C86.0912 47.5969 84.8705 47.3295 83.6468 47.4008C79.4228 47.4008 77.2306 50.917 77.2306 55.8322C77.2306 61.2427 79.3694 64.2389 83.7858 64.2389V64.2265ZM32.7986 47.7103V54.1237H28.3821V47.7103H25.0671V63.9046H28.3821V57.1446H32.7986V63.9046H36.1136V47.7103H32.7986ZM51.0312 60.8837H49.5662V47.7103H39.9098V49.097C39.9098 53.0589 39.696 58.1722 38.5197 60.8837H37.4931V67.6065H40.5515V63.9046H47.9728V67.6065H51.0312V60.8837ZM73.659 63.9046H77.4124L72.1084 55.176L76.7815 47.7103H73.4451L68.772 55.176V47.7103H65.4569V63.9046H68.772V55.956L73.659 63.9046ZM57.7254 50.4094C59.3723 50.4094 59.8749 51.9941 59.8749 54.0246V54.3465H55.2552C55.3408 51.7713 56.1535 50.4218 57.7361 50.4218L57.7254 50.4094ZM46.2512 60.8837H41.578C42.4977 58.4322 42.7543 54.0246 42.7543 51.2265V50.7313H46.2512V60.8837Z" fill="black"/>
<mask id="mask0_50_458" style="mask-type:luminance" maskUnits="userSpaceOnUse" x="93" y="37" width="27" height="31">
<path d="M93.5491 37.9058H119.214V67.62H93.5491V37.9058Z" fill="white"/>
</mask>
<g mask="url(#mask0_50_458)">
<mask id="mask1_50_458" style="mask-type:luminance" maskUnits="userSpaceOnUse" x="89" y="32" width="35" height="41">
<path d="M89.2717 32.9536H123.491V72.5727H89.2717V32.9536Z" fill="white"/>
</mask>
<g mask="url(#mask1_50_458)">
<path d="M101.088 58.8909C94.2228 50.9423 93.5491 46.7699 93.7736 44.6899C93.5491 46.6957 93.5491 49.2957 93.5491 52.7623C93.5491 59.7699 93.5491 63.2738 95.4205 65.4528C97.3132 67.6195 100.34 67.6195 106.381 67.6195C109.365 67.6195 111.621 67.6195 113.364 67.3718C111.557 67.6195 107.953 66.8395 101.088 58.8909Z" fill="url(#paint0_linear_50_458)"/>
<path d="M117.343 40.0838C115.45 37.9048 112.423 37.9048 106.382 37.9048C100.329 37.9048 97.3133 37.9048 95.4206 40.0838C94.4795 41.1857 94.009 42.6219 93.7738 44.6895C93.5492 46.7695 94.2015 50.9295 101.088 58.8905C107.975 66.8638 111.557 67.6315 113.365 67.3591C115.14 67.0991 116.391 66.5543 117.343 65.4524C119.214 63.2734 119.214 59.7572 119.214 52.7619C119.214 45.7667 119.214 42.2629 117.343 40.0838Z" fill="url(#paint1_linear_50_458)"/>
<path d="M109.75 64.029L109.718 63.6328C109.205 57.2814 108.948 54.0995 107.077 51.9576C105.216 49.7909 102.478 49.4938 96.9925 48.8995L96.6503 48.8623C96.2221 48.8149 95.8064 48.6683 95.4281 48.4312C95.0498 48.1941 94.7166 47.8713 94.4482 47.482C94.1798 47.0928 93.9818 46.645 93.8659 46.1653C93.7501 45.6857 93.7187 45.1839 93.7737 44.6899C93.6882 45.1357 93.6347 45.6185 93.6882 46.0766C93.7844 47.1166 94.041 48.1566 94.3512 48.9614C95.228 51.2271 97.0567 54.8547 100.81 59.2128C104.574 63.5585 107.708 65.6757 109.654 66.6909C110.349 67.0499 111.258 67.3471 112.156 67.4585C112.552 67.5204 112.958 67.4585 113.354 67.3595C112.926 67.4231 112.492 67.3864 112.077 67.2515C111.662 67.1166 111.275 66.8862 110.939 66.5742C110.602 66.2622 110.324 65.8749 110.119 65.4355C109.915 64.9961 109.79 64.5135 109.75 64.0166V64.029Z" fill="url(#paint2_linear_50_458)"/>
</g>
</g>
<path d="M124.978 60.3637V63.9046C124.978 63.9046 125.448 64.2265 126.368 64.2265C129.64 64.2265 130.56 61.1065 130.731 52.9351L130.923 44.5656H135.65V63.9046H139.008V41.5322H127.886L127.64 52.997C127.534 58.4322 127.288 60.6484 125.929 60.6484C125.256 60.6484 124.967 60.3637 124.967 60.3637H124.978ZM152.247 52.8608C152.247 48.936 150.536 47.4627 147.028 47.4627C144.836 47.4627 143.114 48.2675 142.109 48.9484V52.1303C143.462 51.1159 145.032 50.5585 146.643 50.5208C148.226 50.5208 148.942 51.1646 148.942 52.8979V53.8018H148.418C143.36 53.8018 141.104 55.7332 141.104 59.0018C141.104 62.2951 142.825 64.1275 145.381 64.1275C147.338 64.1275 148.162 63.3846 148.803 62.617H148.942C148.974 63.0379 149.081 63.5827 149.199 63.9046H152.418C152.309 62.5878 152.255 61.2656 152.257 59.9427V52.8608H152.247ZM148.942 60.0417C148.525 60.7475 147.755 61.3294 146.59 61.3294C145.199 61.3294 144.504 60.3637 144.504 58.9151C144.504 57.0208 145.638 56.3398 148.472 56.3398H148.942V60.0417ZM160.416 63.9046C163.699 63.9046 165.646 62.2951 165.646 59.1998C165.646 57.0827 164.534 55.857 162.673 55.4732C164.17 54.9779 165.122 53.7646 165.122 51.8332C165.122 49.0722 163.528 47.7103 160.481 47.7103H154.92V63.9046H160.416ZM159.999 50.6075C161.197 50.6075 161.871 51.1894 161.871 52.4151C161.871 53.5294 161.144 54.2103 159.892 54.2103H158.224V50.6198H159.999V50.6075ZM160.064 57.0208C161.475 57.0208 162.224 57.5903 162.224 58.9522C162.224 60.4379 161.39 61.0075 160.053 61.0075H158.224V57.0208H160.064ZM176.061 63.9046H179.815L174.511 55.176L179.184 47.7103H175.847L171.174 55.176V47.7103H167.859V63.9046H171.174V55.956L176.061 63.9046ZM191.075 52.8608C191.075 48.936 189.364 47.4627 185.857 47.4627C183.654 47.4627 181.932 48.2675 180.938 48.9484V52.1303C182.287 51.1181 183.853 50.5608 185.461 50.5208C187.044 50.5208 187.771 51.1646 187.771 52.8979V53.8018H187.236C182.178 53.8018 179.932 55.7332 179.932 59.0018C179.932 62.2951 181.643 64.1275 184.21 64.1275C186.156 64.1275 186.99 63.3846 187.632 62.617H187.771C187.792 63.0379 187.91 63.5827 188.017 63.9046H191.246C191.134 62.588 191.077 61.2658 191.075 59.9427V52.8608ZM187.76 60.0417C187.354 60.7475 186.584 61.3294 185.408 61.3294C184.017 61.3294 183.322 60.3637 183.322 58.9151C183.322 57.0208 184.456 56.3398 187.3 56.3398H187.771V60.0417H187.76Z" fill="black"/>
<defs>
<linearGradient id="paint0_linear_50_458" x1="93.5491" y1="67.6219" x2="116.243" y2="48.0242" gradientUnits="userSpaceOnUse">
<stop stop-color="#00E6E6"/>
<stop offset="0.495" stop-color="#0059B3"/>
</linearGradient>
<linearGradient id="paint1_linear_50_458" x1="93.7363" y1="67.4049" x2="124.853" y2="46.1705" gradientUnits="userSpaceOnUse">
<stop stop-color="#00BFFF"/>
<stop offset="1" stop-color="#80FFEA"/>
</linearGradient>
<linearGradient id="paint2_linear_50_458" x1="101.277" y1="59.0457" x2="107.315" y2="54.3497" gradientUnits="userSpaceOnUse">
<stop stop-color="#E6FBFF"/>
<stop offset="1" stop-color="white"/>
</linearGradient>
</defs>
</svg>
