<svg version="1.1" id="Layer_1" xmlns="http://www.w3.org/2000/svg" xmlns:xlink="http://www.w3.org/1999/xlink" x="0px" y="0px"
	 width="100%" viewBox="0 0 1024 1024" enable-background="new 0 0 1024 1024" xml:space="preserve">
<path fill="#000000" opacity="1.000000" stroke="none" 
	d="
M619.516479,897.588806 
	C611.439392,901.190369 603.558960,904.252747 596.321411,908.811218 
	C590.884399,912.235596 584.322693,912.684265 578.117676,913.818848 
	C561.217346,916.909058 544.330933,915.694824 527.437134,913.478516 
	C518.637573,912.324158 509.687958,912.053467 501.103638,914.414551 
	C488.104095,917.990051 475.423096,916.228027 462.540588,913.950012 
	C447.317474,911.258057 432.546539,906.171814 417.131287,904.827942 
	C409.521057,904.164612 403.617340,900.993652 397.790131,896.723938 
	C394.409302,894.246826 393.312164,890.189270 389.822144,887.469360 
	C380.222595,879.987732 368.864838,877.475342 357.757690,874.176270 
	C352.355621,872.571716 346.514709,872.448059 341.108246,870.854187 
	C313.696167,862.772888 291.269012,848.730530 281.778229,819.772522 
	C276.600433,803.974182 272.800140,787.745728 266.061920,772.428772 
	C261.436127,761.913574 260.268799,750.674194 260.867737,739.144592 
	C261.315674,730.522156 262.193756,721.707825 259.871460,713.257507 
	C255.990601,699.135620 251.623245,685.260498 242.408707,673.284058 
	C237.016006,666.275024 231.072235,659.863037 225.300598,653.228027 
	C211.200150,637.018188 204.636490,617.679382 201.880402,596.447205 
	C199.869141,580.953003 201.691971,565.829773 203.357574,550.674805 
	C204.774902,537.778931 202.742905,525.444153 200.226624,513.034363 
	C196.915146,496.702698 197.257797,480.972321 204.175995,465.230347 
	C210.635895,450.531158 217.902802,436.427490 226.829865,423.121307 
	C231.694473,415.870392 231.441544,407.251312 232.759293,399.086182 
	C233.265182,395.951599 233.781281,392.851166 234.731674,389.821075 
	C237.694901,380.373535 239.386322,370.754486 238.994720,360.792969 
	C238.616394,351.168823 240.484207,341.899261 243.996002,332.951660 
	C245.494919,329.132629 248.320999,326.270752 251.055893,323.362823 
	C262.767242,310.910583 272.963562,297.803192 277.208038,280.510803 
	C281.311035,263.794922 291.482819,251.280182 308.187744,245.240067 
	C313.645294,243.266769 319.436523,242.213058 325.080078,240.757965 
	C345.382751,235.523254 364.338806,227.148224 382.544830,216.803055 
	C394.848022,209.812042 407.500488,203.427704 420.084625,196.942551 
	C426.587494,193.591309 431.569489,188.087677 438.649475,185.374344 
	C454.254517,179.393845 469.055176,181.346252 483.655975,188.170898 
	C491.196136,191.695282 498.515442,195.695862 506.081116,199.161163 
	C517.351562,204.323349 529.359741,204.185089 541.410583,203.587280 
	C553.404724,202.992294 563.779602,198.011627 574.282043,192.682144 
	C587.722290,185.861816 601.461914,182.972015 615.132141,193.260834 
	C622.184082,198.568420 631.389587,200.327545 638.645264,205.242294 
	C658.666992,218.804337 680.361572,229.478775 701.241577,241.490143 
	C718.325745,251.317932 732.310181,264.054810 744.075012,278.976044 
	C754.251404,291.882477 759.570435,307.882324 764.977600,323.521362 
	C770.431091,339.294250 773.370117,355.740906 778.609985,371.557373 
	C781.937561,381.601410 788.422791,390.081451 792.130615,399.950165 
	C795.508789,408.941589 797.580017,418.105255 797.975708,427.679993 
	C798.692566,445.027771 800.162964,462.254303 806.040283,478.796082 
	C807.416443,482.669342 807.549622,486.663361 806.132507,490.568970 
	C801.699829,502.785126 797.729736,515.206909 792.557129,527.104187 
	C788.828857,535.679321 784.300842,543.858521 783.628174,553.389648 
	C782.727051,566.156799 781.674377,578.785278 787.314819,591.126953 
	C794.174011,606.135071 794.334595,621.480713 786.223938,636.295471 
	C774.084961,658.468262 772.116516,682.271790 773.496948,706.972595 
	C773.909180,714.348206 774.245605,721.875122 774.047729,729.340759 
	C773.919495,734.179077 771.360657,738.220032 769.669800,742.514832 
	C766.254517,751.189697 762.208618,759.600098 759.258423,768.481506 
	C757.176147,774.750061 753.561829,780.017700 747.670288,783.627625 
	C741.676575,787.300049 737.906616,793.222534 734.440857,799.047913 
	C726.802124,811.887329 715.556519,821.235291 704.849976,831.180786 
	C698.526001,837.055420 692.593628,843.362244 685.774231,848.685791 
	C676.865845,855.639954 668.032349,862.712524 658.811096,869.231262 
	C655.590820,871.507751 653.398682,874.593750 650.472229,876.992615 
	C640.943237,884.803345 631.232849,892.370300 619.516479,897.588806 
M471.575775,312.167206 
	C462.149261,313.212524 452.692017,314.038513 443.303558,315.355164 
	C429.604523,317.276337 415.995056,319.792938 403.197510,325.318359 
	C393.082458,329.685638 392.010651,332.337219 393.820007,343.047394 
	C397.448822,364.527161 400.755676,386.057617 402.318573,407.813568 
	C403.200470,420.089844 404.268280,432.354767 404.965607,444.641083 
	C405.169830,448.239105 406.869354,449.927673 409.876831,451.275940 
	C417.815216,454.834625 426.000183,457.676575 434.489014,459.456116 
	C478.802856,468.745911 523.356323,469.633514 568.044861,462.604462 
	C581.710449,460.455017 595.156006,457.262512 607.865723,451.495941 
	C611.295776,449.939667 612.995178,447.788483 612.911743,443.855957 
	C612.823914,439.713531 613.395996,435.558411 613.653015,431.407196 
	C615.506409,401.475677 619.400024,371.793274 624.553223,342.266144 
	C626.254700,332.516754 625.112854,330.155304 616.188354,325.837769 
	C614.245361,324.897797 612.210327,324.123138 610.167236,323.418732 
	C590.155945,316.519440 569.322693,314.011841 548.398560,312.311646 
	C523.124573,310.257996 497.810242,310.418610 471.575775,312.167206 
M561.561646,530.871033 
	C565.370667,530.523499 569.178833,530.167297 572.988770,529.829712 
	C596.543152,527.742981 619.947327,524.634827 642.912720,518.864258 
	C655.538086,515.691772 668.018433,511.881012 678.860168,504.359650 
	C689.426392,497.029327 689.005981,487.774200 678.083435,481.097107 
	C662.238281,471.410828 644.328247,469.292542 626.438782,467.323151 
	C620.437378,466.662445 619.125244,467.797485 619.512329,473.986420 
	C619.943909,480.884460 616.692688,485.040588 611.253296,488.097534 
	C607.924866,489.968079 604.519104,491.797302 600.958313,493.142487 
	C577.466553,502.017151 552.824158,504.975922 528.011963,506.072052 
	C502.878052,507.182434 477.729279,506.505981 452.814117,502.262390 
	C437.856262,499.714691 423.015411,496.729614 409.262115,489.960175 
	C402.048279,486.409515 396.983612,481.400177 397.925659,472.449890 
	C398.327057,468.636108 396.401093,467.028687 392.541565,467.243622 
	C384.206696,467.707733 375.985016,468.984192 367.863434,470.770630 
	C357.618988,473.023956 347.312164,475.287811 338.527008,481.538727 
	C328.879333,488.403381 328.797516,496.668365 338.218384,503.771362 
	C347.047119,510.427948 357.335541,513.849121 367.767792,516.775452 
	C397.058105,524.991577 427.064178,528.787476 457.328949,530.961914 
	C491.767883,533.436218 526.196350,533.524902 561.561646,530.871033 
M522.547852,557.019348 
	C517.187988,559.452393 513.076477,563.506836 509.279297,568.101501 
	C508.190033,567.109314 507.539795,566.608398 506.997559,566.009583 
	C497.290771,555.290161 485.164978,551.450745 470.974396,553.003662 
	C458.668030,554.350464 449.393372,561.166748 440.660583,569.129639 
	C435.239990,574.072327 429.758881,578.921753 422.977051,582.030518 
	C400.705078,592.239746 379.223602,574.640076 381.883881,556.026001 
	C381.972565,555.405579 381.881958,554.665527 380.677765,554.507141 
	C378.203308,558.364136 376.447205,562.539124 376.080872,567.309265 
	C374.705322,585.221130 384.127869,597.338806 397.715576,606.928772 
	C415.327667,619.359070 435.351624,622.849243 456.286621,620.433655 
	C474.616028,618.318787 490.883209,611.031555 503.981537,597.521301 
	C505.803833,595.641724 506.825134,592.996887 509.426117,591.679810 
	C512.173950,594.648071 514.617310,597.850891 517.602905,600.424561 
	C544.475342,623.589233 574.888245,626.537292 606.886414,614.110962 
	C624.118103,607.419067 637.299866,595.417786 641.219116,576.045654 
	C642.812317,568.170715 641.192261,560.826294 636.303223,554.025146 
	C634.963013,555.417236 635.232727,556.488953 635.368591,557.397583 
	C637.215515,569.743164 626.307007,582.779419 612.163696,584.552002 
	C601.003174,585.950745 592.044556,581.295593 583.760071,574.733459 
	C579.063293,571.013062 574.779053,566.770264 570.065002,563.073853 
	C555.735962,551.838135 540.109192,549.422668 522.547852,557.019348 
M412.915710,646.724609 
	C410.045258,643.910034 408.760223,646.732605 407.530792,648.456848 
	C401.541901,656.855896 395.673859,665.341431 389.809326,673.828369 
	C388.904144,675.138367 387.568573,676.348938 388.092834,678.671021 
	C403.081604,684.610107 418.767639,689.471375 433.741272,697.155457 
	C429.290588,701.634460 423.184296,702.695007 419.353424,707.544495 
	C447.010742,732.049316 474.464386,756.373657 502.596619,781.299255 
	C500.978333,777.489014 499.843262,774.403748 498.395844,771.472778 
	C484.545410,743.425964 470.571991,715.439636 456.833801,687.338135 
	C454.895325,683.372864 452.186279,680.752441 448.510010,678.525452 
	C434.887970,670.273376 422.423950,660.652100 412.915710,646.724609 
M521.680664,770.099670 
	C520.110046,773.596130 518.539429,777.092590 516.968811,780.589111 
	C544.485779,755.763306 572.769470,732.184692 600.304138,707.295349 
	C595.503479,702.821106 589.777344,701.538452 585.946838,696.827393 
	C601.049805,689.451965 616.565063,684.570312 632.268433,677.970520 
	C624.290161,666.164856 616.995728,654.980164 608.851685,644.509399 
	C607.919067,644.966980 607.508484,645.030334 607.356079,645.262939 
	C597.439453,660.399292 583.693115,671.251221 568.247498,680.182434 
	C566.104492,681.421570 564.866760,683.224182 563.802246,685.372498 
	C549.909363,713.409790 535.966492,741.422363 521.680664,770.099670 
M557.351807,661.803772 
	C579.369873,649.815796 594.633240,638.649109 597.636108,628.084595 
	C594.313599,628.422607 591.700684,629.928223 589.453796,632.370483 
	C586.515137,635.564819 583.122009,638.241577 579.457825,640.601807 
	C561.341919,652.271179 542.148560,661.829041 522.161987,669.809692 
	C513.778137,673.157349 505.215820,673.246338 496.802277,669.941956 
	C490.146851,667.328125 483.460022,664.692810 477.094666,661.461243 
	C459.173218,652.363037 440.473267,644.483276 425.839966,629.988708 
	C424.585083,628.745728 422.922180,627.678894 420.349792,629.227844 
	C423.484680,634.813965 427.498413,639.576904 432.505157,643.417175 
	C451.661591,658.110413 472.944489,669.092957 495.135590,678.291626 
	C504.343079,682.108337 514.054688,681.884460 523.422974,678.143311 
	C534.874146,673.570435 545.945007,668.174072 557.351807,661.803772 
M512.611938,779.050415 
	C516.057983,771.682739 519.513977,764.319641 522.942200,756.943665 
	C523.705444,755.301575 524.959167,753.660828 524.519836,751.797546 
	C523.194092,746.175537 523.163635,739.629944 519.484375,735.394714 
	C516.712830,732.204468 510.954529,734.644287 506.544586,734.272644 
	C505.061371,734.147583 503.557037,734.268738 502.062408,734.284790 
	C500.658020,734.299805 499.115417,734.582825 498.828674,736.070129 
	C497.345459,743.762207 492.468079,750.977722 497.400665,759.439819 
	C501.948120,767.241150 505.248657,775.769348 509.132782,784.050720 
	C511.348480,782.900879 511.468170,781.057068 512.611938,779.050415 
M509.542969,700.381958 
	C503.203033,703.430542 497.930878,708.006958 492.487762,712.333313 
	C490.376282,714.011597 490.135925,715.884827 491.338135,718.453491 
	C494.944275,726.158630 499.340027,732.256409 509.319305,729.918213 
	C510.736542,729.586121 512.306702,729.971313 513.791809,729.849915 
	C516.375366,729.638916 519.538513,730.894775 521.389099,728.619202 
	C524.519348,724.770081 527.074463,720.449585 529.051575,715.859253 
	C529.626404,714.524536 528.418640,713.697632 527.542114,712.996704 
	C521.972900,708.543701 516.469238,703.994873 509.542969,700.381958 
z"/>
</svg>