<svg width="200" height="100" viewBox="0 0 200 100" fill="none" xmlns="http://www.w3.org/2000/svg">
<g clip-path="url(#clip0_54_60)">
<path d="M83.2927 39.6V59.4H79.8048V43.8625H79.7583L73.5267 59.4H71.2014L64.8303 43.8625H64.7838V59.4H61.575V39.6H66.5975L72.3641 54.2666H72.4571L78.5492 39.6H83.2927ZM86.176 41.1125C86.176 40.5625 86.362 40.1041 86.7805 39.7375C87.1991 39.3708 87.6641 39.1875 88.2222 39.1875C88.8267 39.1875 89.3383 39.3708 89.7103 39.7375C90.0824 40.1041 90.3149 40.5625 90.3149 41.1125C90.3149 41.6625 90.1289 42.1208 89.7103 42.4875C89.2918 42.8541 88.8267 43.0375 88.2222 43.0375C87.6176 43.0375 87.1526 42.8541 86.7805 42.4875C86.4085 42.075 86.176 41.6166 86.176 41.1125ZM89.9428 45.1916V59.4H86.548V45.1916H89.9428ZM100.22 56.9708C100.732 56.9708 101.29 56.8791 101.895 56.6041C102.499 56.375 103.057 56.0541 103.569 55.6875V58.8041C103.011 59.125 102.406 59.3541 101.709 59.4916C101.011 59.6291 100.267 59.7208 99.4298 59.7208C97.2906 59.7208 95.5699 59.0791 94.2678 57.75C92.9191 56.4208 92.2681 54.725 92.2681 52.7083C92.2681 50.4166 92.9657 48.5375 94.3143 47.0708C95.6629 45.6041 97.5696 44.8708 100.081 44.8708C100.732 44.8708 101.383 44.9625 101.988 45.1C102.639 45.2375 103.15 45.4666 103.522 45.65V48.8583C103.011 48.4916 102.453 48.1708 101.941 47.9875C101.383 47.8041 100.825 47.6666 100.267 47.6666C98.9183 47.6666 97.8486 48.0791 97.0116 48.95C96.1745 49.8208 95.8024 50.9666 95.8024 52.4333C95.8024 53.8541 96.221 55 97.0116 55.7791C97.8021 56.5583 98.8718 56.9708 100.22 56.9708ZM113.195 44.9625C113.474 44.9625 113.707 44.9625 113.939 45.0083C114.172 45.0541 114.358 45.1 114.497 45.1458V48.5375C114.311 48.4 114.079 48.2625 113.707 48.1708C113.335 48.0791 112.963 47.9875 112.451 47.9875C111.614 47.9875 110.916 48.3541 110.358 49.0416C109.8 49.7291 109.475 50.7833 109.475 52.25V59.4H106.08V45.1916H109.475V47.4375H109.521C109.847 46.6583 110.312 46.0625 110.916 45.6041C111.568 45.1916 112.312 44.9625 113.195 44.9625ZM114.683 52.525C114.683 50.1875 115.381 48.3083 116.683 46.9333C118.032 45.5583 119.892 44.8708 122.264 44.8708C124.496 44.8708 126.263 45.5125 127.519 46.8416C128.774 48.1708 129.425 49.9583 129.425 52.2041C129.425 54.4958 128.728 56.3291 127.426 57.7041C126.077 59.0791 124.263 59.7666 121.938 59.7666C119.706 59.7666 117.939 59.125 116.637 57.8416C115.334 56.5125 114.683 54.725 114.683 52.525ZM118.218 52.3875C118.218 53.8541 118.543 55 119.241 55.7791C119.938 56.5583 120.915 56.9708 122.171 56.9708C123.38 56.9708 124.356 56.6041 125.007 55.7791C125.658 55 125.984 53.8541 125.984 52.2958C125.984 50.7833 125.658 49.6375 125.007 48.8125C124.356 48.0333 123.38 47.6208 122.217 47.6208C120.962 47.6208 120.031 48.0333 119.334 48.8583C118.543 49.7291 118.218 50.875 118.218 52.3875ZM134.494 48.95C134.494 49.4083 134.634 49.8208 134.959 50.0958C135.285 50.3708 135.936 50.6916 137.006 51.1041C138.354 51.6541 139.331 52.25 139.842 52.8916C140.4 53.5791 140.68 54.3583 140.68 55.3208C140.68 56.65 140.168 57.7041 139.098 58.5291C138.075 59.3541 136.634 59.7208 134.866 59.7208C134.262 59.7208 133.611 59.6291 132.867 59.4916C132.123 59.3541 131.518 59.1708 131.007 58.9416V55.6416C131.611 56.0541 132.309 56.4208 133.006 56.65C133.704 56.8791 134.355 57.0166 134.959 57.0166C135.704 57.0166 136.308 56.925 136.634 56.6958C137.006 56.4666 137.192 56.1458 137.192 55.6416C137.192 55.1833 137.006 54.8166 136.634 54.45C136.262 54.1291 135.517 53.7625 134.494 53.35C133.239 52.8458 132.355 52.25 131.844 51.6083C131.332 50.9666 131.053 50.1416 131.053 49.1333C131.053 47.85 131.565 46.7958 132.588 45.9708C133.611 45.1458 134.959 44.7333 136.587 44.7333C137.099 44.7333 137.657 44.7791 138.261 44.9166C138.866 45.0541 139.424 45.1916 139.842 45.3291V48.5833C139.377 48.3083 138.866 48.0333 138.261 47.8041C137.657 47.575 137.052 47.4833 136.494 47.4833C135.843 47.4833 135.331 47.6208 135.006 47.85C134.68 48.1708 134.494 48.4916 134.494 48.95ZM142.121 52.525C142.121 50.1875 142.819 48.3083 144.121 46.9333C145.47 45.5583 147.33 44.8708 149.701 44.8708C151.934 44.8708 153.701 45.5125 154.956 46.8416C156.212 48.1708 156.863 49.9583 156.863 52.2041C156.863 54.4958 156.166 56.3291 154.863 57.7041C153.515 59.0791 151.701 59.7666 149.376 59.7666C147.144 59.7666 145.376 59.125 144.074 57.8416C142.819 56.5125 142.121 54.725 142.121 52.525ZM145.656 52.3875C145.656 53.8541 145.981 55 146.679 55.7791C147.376 56.5583 148.353 56.9708 149.608 56.9708C150.818 56.9708 151.794 56.6041 152.445 55.7791C153.096 55 153.422 53.8541 153.422 52.2958C153.422 50.7833 153.096 49.6375 152.445 48.8125C151.794 48.0333 150.818 47.6208 149.655 47.6208C148.399 47.6208 147.469 48.0333 146.772 48.8583C146.028 49.7291 145.656 50.875 145.656 52.3875ZM168.164 47.9416H163.095V59.4H159.653V47.9416H157.235V45.1916H159.653V43.2208C159.653 41.7541 160.165 40.5166 161.142 39.5541C162.118 38.5916 163.374 38.1333 164.908 38.1333C165.327 38.1333 165.699 38.1791 166.025 38.1791C166.35 38.1791 166.629 38.2708 166.862 38.3625V41.25C166.769 41.2041 166.536 41.1125 166.257 41.0208C165.978 40.9291 165.653 40.8833 165.281 40.8833C164.583 40.8833 164.025 41.1125 163.653 41.525C163.281 41.9375 163.095 42.625 163.095 43.45V45.1458H168.164V41.9375L171.559 40.9291V45.1458H175V47.8958H171.559V54.5416C171.559 55.4125 171.745 56.0083 172.024 56.375C172.349 56.7416 172.861 56.925 173.558 56.925C173.744 56.925 173.977 56.8791 174.256 56.7875C174.535 56.6958 174.767 56.6041 174.954 56.4666V59.2166C174.721 59.3541 174.395 59.4458 173.884 59.5375C173.372 59.6291 172.907 59.675 172.396 59.675C170.954 59.675 169.884 59.3083 169.187 58.575C168.489 57.8416 168.117 56.6958 168.117 55.1833L168.164 47.9416Z" fill="black"/>
<path d="M33.9046 33H18V48.675H33.9046V33Z" fill="#F25022"/>
<path d="M51.4835 33H35.5789V48.675H51.4835V33Z" fill="#7FBA00"/>
<path d="M33.9046 50.3252H18V66.0002H33.9046V50.3252Z" fill="#00A4EF"/>
<path d="M51.4835 50.3252H35.5789V66.0002H51.4835V50.3252Z" fill="#FFB900"/>
</g>
<defs>
<clipPath id="clip0_54_60">
<rect width="157" height="33" fill="white" transform="translate(18 33)"/>
</clipPath>
</defs>
</svg>
