<svg width="200" height="100" viewBox="0 0 200 100" fill="none" xmlns="http://www.w3.org/2000/svg">
<path fill-rule="evenodd" clip-rule="evenodd" d="M183.107 60.0804V59.5566H183.415C183.582 59.5566 183.811 59.5706 183.811 59.7946C183.811 60.0373 183.693 60.0804 183.495 60.0804H183.107ZM183.107 60.4479H183.312L183.789 61.3626H184.312L183.785 60.4106C184.057 60.3884 184.281 60.2473 184.281 59.8459C184.281 59.3478 183.966 59.1868 183.435 59.1868H182.666V61.3626H183.107V60.4479ZM185.346 60.2776C185.346 59.0001 184.438 58.2593 183.425 58.2593C182.406 58.2593 181.499 59.0001 181.499 60.2776C181.499 61.5551 182.406 62.2994 183.425 62.2994C184.437 62.2994 185.346 61.5551 185.346 60.2776ZM184.791 60.2776C184.791 61.2086 184.165 61.8339 183.425 61.8339V61.8269C182.665 61.8339 182.05 61.2086 182.05 60.2776C182.05 59.3478 182.666 58.7248 183.425 58.7248C184.166 58.7248 184.791 59.3478 184.791 60.2776Z" fill="black"/>
<path fill-rule="evenodd" clip-rule="evenodd" d="M114.838 38.658L114.84 61.5946H120.765V38.658H114.838ZM68.2314 38.6276V61.5946H74.2103V43.7668L78.8734 43.7831C80.4068 43.7831 81.4664 44.1856 82.2058 45.0478C83.1438 46.1398 83.5258 47.8991 83.5258 51.1203V61.5946H89.3168V48.9048C89.3168 39.848 84.0369 38.6265 78.8712 38.6265H68.2325L68.2314 38.6276ZM124.378 38.6591V61.5946H133.988C139.108 61.5946 140.779 60.6636 142.585 58.5765C143.863 57.1111 144.688 53.8935 144.688 50.3783C144.688 47.1548 143.989 44.279 142.771 42.4881C140.576 39.2856 137.414 38.6591 132.692 38.6591H124.378ZM130.255 43.6525H132.802C136.497 43.6525 138.888 45.4678 138.888 50.1753C138.888 54.8851 136.497 56.6993 132.802 56.6993H130.255V43.6525ZM106.296 38.6591L101.351 56.8358L96.6135 38.6603L90.2185 38.6591L96.9837 61.5946H105.524L112.343 38.6591H106.296ZM147.446 61.5946H153.371V38.6603L147.443 38.6591L147.446 61.5946ZM164.054 38.6673L155.781 61.5865H161.623L162.932 57.5358H172.722L173.961 61.5865H180.304L171.968 38.6661L164.054 38.6673ZM167.899 42.8498L171.489 53.5878H164.198L167.899 42.8498Z" fill="black"/>
<path fill-rule="evenodd" clip-rule="evenodd" d="M30.0218 42.4824V39.3265C30.3014 39.3032 30.5852 39.288 30.8733 39.2775C38.7697 39.0069 43.9503 46.6964 43.9503 46.6964C43.9503 46.6964 38.3546 55.192 32.3555 55.192C31.5627 55.1955 30.7741 55.0579 30.0218 54.7837V45.2124C33.095 45.6184 33.7139 47.1024 35.562 50.4717L39.6724 46.6824C39.6724 46.6824 36.6718 42.3797 31.6139 42.3797C31.0643 42.3797 30.5383 42.4217 30.0218 42.4824ZM30.0218 32.0547V36.7715C30.3046 36.747 30.5884 36.7272 30.8733 36.7155C41.8535 36.3119 49.0082 46.5622 49.0082 46.5622C49.0082 46.5622 40.7918 57.4869 32.2306 57.4869C31.4463 57.4869 30.7111 57.4075 30.0218 57.2734V60.1877C30.6119 60.2694 31.2233 60.3184 31.8614 60.3184C39.8271 60.3184 45.5883 55.871 51.1669 50.6059C52.0921 51.4155 55.8791 53.386 56.657 54.2494C51.3526 59.1027 38.9916 63.0169 31.9831 63.0169C31.3279 63.0145 30.6738 62.9772 30.0218 62.9049V66.9999H60.3V32.0547H30.0218ZM30.0218 54.7837V57.2734C22.6537 55.8384 20.6081 47.4629 20.6081 47.4629C20.6081 47.4629 24.1465 43.1765 30.0218 42.4824V45.2124L30.0101 45.2112C26.9262 44.8064 24.5178 47.9564 24.5178 47.9564C24.5178 47.9564 25.8677 53.2577 30.0218 54.7837ZM16.9352 47.1C16.9352 47.1 21.3017 40.0534 30.0218 39.3265V36.7692C20.3637 37.6174 12 46.5599 12 46.5599C12 46.5599 16.7367 61.5317 30.0218 62.9025V60.1877C20.273 58.8472 16.9352 47.1 16.9352 47.1Z" fill="#76B900"/>
</svg>
