<svg width="200" height="100" viewBox="0 0 200 100" fill="none" xmlns="http://www.w3.org/2000/svg">
<g clip-path="url(#clip0_53_521)">
<path d="M140 9H59V90H140V9Z" fill="#005BFF"/>
<path d="M81.5198 37.2414C81.5198 42.0746 77.9391 45.4093 73.0545 45.4093C68.1676 45.4093 64.5891 42.0746 64.5891 37.2414C64.5891 32.4081 68.1698 29.0734 73.0545 29.0734C77.9413 29.0734 81.5198 32.4081 81.5198 37.2414ZM114.512 37.2414C114.512 42.0746 110.931 45.4093 106.046 45.4093C101.162 45.4093 97.5811 42.0746 97.5811 37.2414C97.5811 32.4081 101.162 29.0734 106.046 29.0734C110.931 29.0734 114.512 32.4081 114.512 37.2414ZM131.735 35.4526V44.8783H127.623V36.3233C127.623 33.8594 126.461 32.8424 124.479 32.8424C122.398 32.8424 120.898 34.0013 120.898 37.3381V44.8783H116.786V29.555H120.851V31.8749H120.948C121.964 30.1356 123.707 29.0713 125.932 29.0713C129.267 29.0734 131.735 30.9096 131.735 35.4526ZM83.0196 29.555V33.0359H91.0976L82.8259 41.5909V44.8783H96.5654V41.3974H87.9064L96.1781 32.793V29.555H83.0196ZM68.8949 37.2414C68.8949 39.8988 70.5389 41.6404 73.0545 41.6404C75.5699 41.6404 77.2139 39.901 77.2139 37.2414C77.2139 34.5818 75.5699 32.8424 73.0545 32.8424C70.5389 32.8424 68.8949 34.5818 68.8949 37.2414ZM101.887 37.2414C101.887 39.8988 103.531 41.6404 106.046 41.6404C108.562 41.6404 110.206 39.901 110.206 37.2414C110.206 34.5818 108.562 32.8424 106.046 32.8424C103.531 32.8424 101.887 34.5818 101.887 37.2414Z" fill="white"/>
<path d="M116.676 54.444V69.2811H112.694V63.2897H106.323V69.2811H102.341V54.444H106.323V59.8255H112.694V54.444H116.676ZM94.9881 54.444V56.5966H94.895C94.1928 55.0998 92.3175 53.9756 89.9298 53.9756C86.0419 53.9756 82.8557 56.784 82.8557 61.8386C82.8557 66.9412 85.9479 69.7953 89.9298 69.7953C92.3654 69.7953 94.0988 68.6712 94.895 67.268H94.9881V69.2811H98.97V54.444H94.9881ZM73.911 54.3045C71.4753 54.3045 69.6022 55.4287 68.6188 57.2066H68.5249C68.6646 53.9298 69.7897 52.5266 73.6297 52.1519L79.5784 51.5898V47.7988L72.9734 48.313C66.5101 48.8272 64.5891 53.2282 64.5891 60.2481C64.5891 66.4728 68.1958 69.7953 72.8796 69.7953C77.5176 69.7953 81.0764 66.4728 81.0764 61.8386C81.0764 57.2066 77.8448 54.3045 73.911 54.3045ZM90.961 66.1917C88.5706 66.1917 87.027 64.4138 87.027 61.9323C87.027 59.405 88.5734 57.5792 90.961 57.5792C93.3487 57.5792 94.9881 59.357 94.9881 61.8844C94.9881 64.3659 93.3487 66.1917 90.961 66.1917ZM72.8317 66.1917C70.5377 66.1917 68.7562 64.4596 68.7562 61.8865C68.7562 59.2654 70.5356 57.7208 72.8317 57.7208C75.1279 57.7208 76.9072 59.2654 76.9072 61.8865C76.9072 64.4596 75.1279 66.1917 72.8317 66.1917ZM129.417 69.2811L124.032 62.1675V69.2811H120.05V54.444H124.032V60.5749L128.997 54.444H133.916L127.826 61.1829L134.476 69.279H129.417V69.2811Z" fill="white"/>
</g>
<defs>
<clipPath id="clip0_53_521">
<rect width="81" height="81" fill="white" transform="translate(59 9)"/>
</clipPath>
</defs>
</svg>
