<svg width="100" height="100" viewBox="0 0 100 100" fill="none" xmlns="http://www.w3.org/2000/svg">
<circle cx="49.5" cy="49.5" r="42.5" fill="#554BDB"/>
<path d="M14 27L76 80" stroke="#544BDB" stroke-width="10" stroke-linecap="round"/>
<path d="M47.5596 75H40.2096C38.623 75 37.573 74.7433 37.0596 74.23C36.593 73.7167 36.3596 72.6433 36.3596 71.01V27.19C36.3596 26.35 36.593 25.6733 37.0596 25.16C37.5263 24.6467 38.133 24.39 38.8796 24.39H47.5596V75ZM50.3597 24.39H59.2497C63.683 24.39 66.623 25.44 68.0697 27.54C69.563 29.5933 70.3097 33.7467 70.3097 40C70.3097 44.1533 69.843 47.3967 68.9096 49.73C68.023 52.0633 66.833 53.6267 65.3396 54.42C63.8463 55.1667 61.8163 55.54 59.2497 55.54H50.3597V48.89H55.5397C56.753 48.89 57.523 48.7267 57.8496 48.4C58.223 48.0733 58.4096 47.56 58.4096 46.86V33.14C58.4096 32.3933 58.223 31.8567 57.8496 31.53C57.523 31.2033 56.753 31.04 55.5397 31.04H50.3597V24.39Z" fill="white"/>
</svg>
