<svg width="200" height="100" viewBox="0 0 200 100" fill="none" xmlns="http://www.w3.org/2000/svg">
<g clip-path="url(#clip0_53_533)">
<path d="M145.354 92.3945C144.924 92.8271 144.45 93.0434 143.847 93.0434C143.244 93.0434 142.771 92.8271 142.34 92.3945C141.91 91.9619 141.738 91.4861 141.738 90.8805C141.738 90.2748 141.953 89.799 142.34 89.3664C142.771 88.9338 143.244 88.7607 143.847 88.7607C144.45 88.7607 144.924 88.977 145.354 89.3664C145.785 89.799 146 90.2748 146 90.8805C146 91.4428 145.785 91.9619 145.354 92.3945ZM142.556 89.5827C142.211 89.9287 142.039 90.3613 142.039 90.8805C142.039 91.3996 142.211 91.8322 142.556 92.1782C142.9 92.5243 143.331 92.7406 143.847 92.7406C144.364 92.7406 144.794 92.5676 145.139 92.1782C145.483 91.8322 145.656 91.3996 145.656 90.8805C145.656 90.3613 145.483 89.9287 145.139 89.5827C144.794 89.2366 144.364 89.0636 143.847 89.0636C143.374 89.0203 142.943 89.1933 142.556 89.5827ZM143.847 89.6692C144.149 89.6692 144.364 89.7125 144.493 89.7557C144.751 89.8422 144.838 90.0585 144.838 90.3613C144.838 90.5776 144.751 90.7074 144.622 90.8372C144.536 90.8805 144.407 90.9237 144.278 90.967C144.45 91.0102 144.579 91.0535 144.665 91.1833C144.751 91.3131 144.794 91.4428 144.794 91.5294V92.0485H144.407V91.7456C144.407 91.4861 144.321 91.3131 144.192 91.2265C144.106 91.1833 143.933 91.14 143.718 91.14H143.417V92.0485H142.986V89.7125H143.847V89.6692ZM144.278 90.0585C144.192 90.0153 144.019 89.972 143.761 89.972H143.417V90.7939H143.804C143.976 90.7939 144.106 90.7939 144.192 90.7507C144.364 90.7074 144.45 90.5776 144.45 90.4046C144.45 90.2316 144.364 90.145 144.278 90.0585Z" fill="black"/>
<path d="M129.811 7H69.4903C60.4056 7 53 14.2243 53 23.0493V76.9074C53 85.8622 60.1472 92.9135 69.3181 92.9135H129.682C138.853 92.9135 146 85.8622 146 76.9074V23.0493C146 14.0513 138.896 7 129.811 7ZM144.149 76.9074C144.149 84.8672 137.776 91.0533 129.639 91.0533H69.3181C61.1806 91.0966 54.8514 84.8672 54.8514 76.9074V23.0493C54.8514 15.0895 61.2667 8.8169 69.4903 8.8169H129.854C137.906 8.8169 144.192 15.0463 144.192 23.0493V76.9074H144.149Z" fill="#040301"/>
<path d="M144.149 76.9074C144.149 84.8672 137.776 91.0533 129.639 91.0533H69.318C61.1805 91.0966 54.8513 84.8672 54.8513 76.9074V23.0493C54.8513 15.0895 61.2666 8.81689 69.4902 8.81689H129.854C137.905 8.81689 144.192 15.0463 144.192 23.0493V76.9074H144.149Z" fill="#FFAB00"/>
<path d="M127.486 59.8199H119.779L118.444 51.3843L113.493 59.7334H105.7L110.436 64.7515L106.561 73.1871L115.086 68.0825L121.76 73.2736L120.511 64.7515" fill="white"/>
<path d="M132.868 58.1327H121.2L119.349 46.4526L112.546 58.0462H111.254C110.479 56.7051 110.178 54.7584 110.178 53.5472C110.178 51.5572 110.307 49.6106 110.307 47.0582C110.307 43.684 109.317 41.9104 106.69 41.2615V41.1749C112.245 40.3963 114.785 36.676 114.785 31.4848C114.785 24.0874 109.876 22.4868 103.461 22.4868H86.1959L78.8765 57.2675H88.0473L90.7167 44.5925H96.8306C100.103 44.5925 101.438 46.1931 101.438 49.2645C101.438 51.6005 101.179 53.4607 101.179 55.2343C101.179 55.8832 101.308 57.4405 101.782 58.0462L108.413 65.0975L102.686 77.4265L114.914 70.1156L124.042 77.1669L122.363 65.5301L132.868 58.1327ZM99.5862 38.1035H92.2667L94.032 29.7112H100.835C103.246 29.7112 105.786 30.3601 105.786 33.3017C105.786 37.0653 102.901 38.1035 99.5862 38.1035ZM115.086 68.0824L106.561 73.187L110.479 64.7947L105.743 59.7766H113.536L118.445 51.4275L119.779 59.8631H127.529L120.554 64.7514L121.803 73.3168L115.086 68.0824Z" fill="#040301"/>
</g>
<defs>
<clipPath id="clip0_53_533">
<rect width="93" height="86" fill="white" transform="translate(53 7)"/>
</clipPath>
</defs>
</svg>
