<svg width="200" height="100" viewBox="0 0 200 100" fill="none" xmlns="http://www.w3.org/2000/svg">
<path d="M88.44 56.98C85.5933 56.98 83.1433 56.35 81.09 55.09C79.0833 53.83 77.5433 52.08 76.47 49.84C75.4433 47.6 74.93 45.01 74.93 42.07V13.86H85.57V42.07C85.57 43.1433 85.7333 44.1 86.06 44.94C86.3867 45.78 86.9 46.4567 87.6 46.97C88.3 47.4367 89.21 47.67 90.33 47.67C91.2633 47.67 92.15 47.5767 92.99 47.39C93.83 47.2033 94.6233 46.9467 95.37 46.62L98.38 54.39C97.3533 55.09 96 55.6967 94.32 56.21C92.64 56.7233 90.68 56.98 88.44 56.98ZM68.49 31.36V23.03H94.88V31.36H68.49ZM119.417 56.98C116.99 56.98 114.633 56.5833 112.347 55.79C110.06 54.95 108.007 53.7833 106.187 52.29C104.413 50.75 102.99 48.93 101.917 46.83C100.89 44.6833 100.377 42.28 100.377 39.62C100.377 36.96 100.89 34.5567 101.917 32.41C102.99 30.2633 104.413 28.4433 106.187 26.95C108.007 25.41 110.06 24.2433 112.347 23.45C114.633 22.61 116.99 22.19 119.417 22.19C121.797 22.19 124.107 22.61 126.347 23.45C128.633 24.2433 130.687 25.41 132.507 26.95C134.327 28.4433 135.773 30.2633 136.847 32.41C137.92 34.5567 138.457 36.96 138.457 39.62C138.457 42.28 137.943 44.6833 136.917 46.83C135.89 48.93 134.49 50.75 132.717 52.29C130.943 53.7833 128.913 54.95 126.627 55.79C124.34 56.5833 121.937 56.98 119.417 56.98ZM119.417 48.72C120.863 48.72 122.17 48.37 123.337 47.67C124.55 46.9233 125.507 45.8733 126.207 44.52C126.953 43.1667 127.327 41.5333 127.327 39.62C127.327 37.7067 126.953 36.0733 126.207 34.72C125.507 33.3667 124.55 32.34 123.337 31.64C122.17 30.8933 120.863 30.52 119.417 30.52C118.017 30.52 116.71 30.8933 115.497 31.64C114.283 32.34 113.303 33.3667 112.557 34.72C111.857 36.0733 111.507 37.7067 111.507 39.62C111.507 41.5333 111.857 43.1667 112.557 44.52C113.303 45.8733 114.283 46.9233 115.497 47.67C116.71 48.37 118.017 48.72 119.417 48.72ZM167.987 56.98C165.187 56.98 162.784 56.42 160.777 55.3C158.817 54.18 157.137 52.85 155.737 51.31C154.384 49.7233 153.217 48.3 152.237 47.04V39.83C153.217 41.1367 154.407 42.4433 155.807 43.75C157.207 45.01 158.701 46.06 160.287 46.9C161.921 47.6933 163.554 48.09 165.187 48.09C166.681 48.09 167.987 47.88 169.107 47.46C170.274 47.04 171.254 46.4567 172.047 45.71C172.841 44.9167 173.447 43.9833 173.867 42.91C174.287 41.8367 174.497 40.67 174.497 39.41C174.497 37.8233 174.171 36.4 173.517 35.14C172.911 33.88 172.001 32.9 170.787 32.2C169.621 31.4533 168.221 31.08 166.587 31.08C164.954 31.08 163.204 31.78 161.337 33.18C159.471 34.5333 157.721 36.4467 156.087 38.92C154.454 41.3933 153.124 44.2867 152.097 47.6V39.97C153.171 36.33 154.687 33.18 156.647 30.52C158.607 27.86 160.777 25.8067 163.157 24.36C165.584 22.9133 167.987 22.19 170.367 22.19C173.074 22.19 175.571 22.9367 177.857 24.43C180.191 25.9233 182.057 27.9767 183.457 30.59C184.904 33.2033 185.627 36.19 185.627 39.55C185.627 42.0233 185.184 44.3333 184.297 46.48C183.457 48.58 182.244 50.4233 180.657 52.01C179.071 53.55 177.204 54.7633 175.057 55.65C172.911 56.5367 170.554 56.98 167.987 56.98ZM140.547 71.26V62.93H163.857V71.26H140.547ZM147.057 68.6V23.03H157.487V68.6H147.057ZM140.547 31.36V23.03H156.997V31.36H140.547Z" fill="black"/>
<rect width="64" height="58" fill="#F3CD46"/>
<path d="M30.25 20.6193V14.9091H54.8381V20.6193H46.017V44H39.0852V20.6193H30.25Z" fill="white"/>
<path d="M22.233 14.9091V44H15.2017V14.9091H22.233Z" fill="white"/>
<rect x="143" width="57" height="9" fill="#F3CD46"/>
<rect x="200" width="56" height="9" transform="rotate(90 200 0)" fill="#F3CD46"/>
<path d="M23.2749 85.3203C23.2204 84.7322 22.9835 84.2721 22.5643 83.94C22.1505 83.6078 21.5515 83.4418 20.7674 83.4418C20.2556 83.4418 19.8281 83.5098 19.4851 83.646C19.1475 83.7766 18.8943 83.9563 18.7255 84.185C18.5567 84.4137 18.4696 84.6751 18.4641 84.9691C18.4532 85.2141 18.4995 85.4319 18.603 85.6225C18.7119 85.8076 18.8725 85.971 19.0849 86.1126C19.2972 86.2541 19.5531 86.3794 19.8526 86.4883C20.1576 86.5917 20.5006 86.6843 20.8817 86.766L22.3111 87.0927C23.1551 87.2724 23.8956 87.5147 24.5327 87.8196C25.1697 88.1191 25.7034 88.4785 26.1335 88.8977C26.5691 89.317 26.8958 89.7962 27.1136 90.3352C27.3314 90.8743 27.4431 91.4732 27.4485 92.1321C27.4431 93.1993 27.1735 94.1114 26.6399 94.8683C26.1117 95.6251 25.3522 96.205 24.3612 96.608C23.3701 97.0109 22.1777 97.2124 20.7837 97.2124C19.368 97.2124 18.1374 97.0027 17.092 96.5835C16.0465 96.1587 15.2325 95.5162 14.6499 94.6559C14.0727 93.7901 13.7759 92.6984 13.7596 91.3807H17.7045C17.7372 91.9143 17.8788 92.3608 18.1293 92.7202C18.3797 93.0795 18.7255 93.3518 19.1665 93.5369C19.613 93.7166 20.133 93.8065 20.7266 93.8065C21.2602 93.8065 21.7148 93.7357 22.0906 93.5941C22.4663 93.4525 22.7521 93.2565 22.9482 93.006C23.1496 92.7501 23.2531 92.4561 23.2585 92.1239C23.2531 91.819 23.1578 91.5576 22.9727 91.3398C22.7875 91.122 22.4989 90.9315 22.1069 90.7681C21.7203 90.5993 21.2193 90.4441 20.604 90.3026L18.8725 89.9023C17.4241 89.5702 16.2807 89.0339 15.4421 88.2933C14.6036 87.5473 14.187 86.5373 14.1925 85.2631C14.187 84.2177 14.4647 83.3056 15.0256 82.527C15.5919 81.7429 16.3732 81.133 17.3697 80.6974C18.3661 80.2618 19.5041 80.044 20.7837 80.044C22.0851 80.044 23.215 80.2646 24.1733 80.7056C25.1371 81.1467 25.883 81.7647 26.4112 82.5597C26.9394 83.3492 27.2089 84.2694 27.2198 85.3203H23.2749ZM59.3859 86.3658H55.2123C55.1687 85.9519 55.0625 85.579 54.8937 85.2468C54.7304 84.9147 54.5126 84.6315 54.2403 84.3974C53.9681 84.1578 53.6441 83.9754 53.2684 83.8501C52.8981 83.7195 52.487 83.6541 52.0351 83.6541C51.2292 83.6541 50.5377 83.8501 49.9605 84.2422C49.3888 84.6342 48.9504 85.2032 48.6455 85.9492C48.3406 86.6897 48.1881 87.5855 48.1881 88.6364C48.1881 89.7308 48.3406 90.6483 48.6455 91.3888C48.9559 92.1294 49.3969 92.6875 49.9687 93.0632C50.5458 93.4335 51.2238 93.6186 52.0024 93.6186C52.4434 93.6186 52.8464 93.5614 53.2112 93.4471C53.576 93.3327 53.8946 93.1667 54.1668 92.9489C54.4391 92.7311 54.665 92.467 54.8447 92.1566C55.0244 91.8462 55.1469 91.4923 55.2123 91.0948L59.3859 91.1193C59.3151 91.8544 59.1028 92.584 58.7488 93.3082C58.3949 94.027 57.9049 94.6831 57.2787 95.2766C56.6579 95.8701 55.9011 96.3439 55.0081 96.6978C54.1151 97.0517 53.086 97.2287 51.9207 97.2287C50.407 97.2287 49.0484 96.8965 47.8451 96.2322C46.6472 95.5679 45.6997 94.596 45.0028 93.3164C44.3112 92.0314 43.9655 90.4714 43.9655 88.6364C43.9655 86.7905 44.3167 85.2305 45.0191 83.9563C45.7269 82.6767 46.6826 81.7048 47.8859 81.0405C49.0893 80.3762 50.4342 80.044 51.9207 80.044C52.9444 80.044 53.8864 80.1856 54.7467 80.4688C55.6125 80.7464 56.3721 81.1548 57.0255 81.6939C57.6843 82.233 58.218 82.8945 58.6263 83.6786C59.0347 84.4627 59.2879 85.3584 59.3859 86.3658ZM76.3378 97V80.2727H80.4624V86.962H86.9639V80.2727H91.0803V97H86.9639V90.3107H80.4624V97H76.3378ZM124.086 88.6364C124.086 90.4822 123.732 92.045 123.024 93.3246C122.316 94.5987 121.355 95.5679 120.141 96.2322C118.932 96.8965 117.579 97.2287 116.081 97.2287C114.573 97.2287 113.215 96.8965 112.006 96.2322C110.797 95.5625 109.839 94.5878 109.131 93.3082C108.423 92.0286 108.069 90.4714 108.069 88.6364C108.069 86.7905 108.423 85.2305 109.131 83.9563C109.839 82.6767 110.797 81.7048 112.006 81.0405C113.215 80.3762 114.573 80.044 116.081 80.044C117.579 80.044 118.932 80.3762 120.141 81.0405C121.355 81.7048 122.316 82.6767 123.024 83.9563C123.732 85.2305 124.086 86.7905 124.086 88.6364ZM119.871 88.6364C119.871 87.5582 119.721 86.6489 119.422 85.9084C119.122 85.1678 118.69 84.607 118.123 84.2259C117.557 83.8447 116.876 83.6541 116.081 83.6541C115.286 83.6541 114.606 83.8447 114.04 84.2259C113.473 84.607 113.04 85.1678 112.741 85.9084C112.441 86.6489 112.292 87.5582 112.292 88.6364C112.292 89.7145 112.441 90.6238 112.741 91.3643C113.04 92.1049 113.473 92.6657 114.04 93.0469C114.606 93.428 115.286 93.6186 116.081 93.6186C116.876 93.6186 117.557 93.428 118.123 93.0469C118.69 92.6657 119.122 92.1049 119.422 91.3643C119.721 90.6238 119.871 89.7145 119.871 88.6364ZM156.946 88.6364C156.946 90.4822 156.592 92.045 155.884 93.3246C155.176 94.5987 154.215 95.5679 153.001 96.2322C151.792 96.8965 150.439 97.2287 148.942 97.2287C147.433 97.2287 146.075 96.8965 144.866 96.2322C143.657 95.5625 142.699 94.5878 141.991 93.3082C141.283 92.0286 140.929 90.4714 140.929 88.6364C140.929 86.7905 141.283 85.2305 141.991 83.9563C142.699 82.6767 143.657 81.7048 144.866 81.0405C146.075 80.3762 147.433 80.044 148.942 80.044C150.439 80.044 151.792 80.3762 153.001 81.0405C154.215 81.7048 155.176 82.6767 155.884 83.9563C156.592 85.2305 156.946 86.7905 156.946 88.6364ZM152.732 88.6364C152.732 87.5582 152.582 86.6489 152.282 85.9084C151.983 85.1678 151.55 84.607 150.984 84.2259C150.417 83.8447 149.737 83.6541 148.942 83.6541C148.147 83.6541 147.466 83.8447 146.9 84.2259C146.334 84.607 145.901 85.1678 145.601 85.9084C145.302 86.6489 145.152 87.5582 145.152 88.6364C145.152 89.7145 145.302 90.6238 145.601 91.3643C145.901 92.1049 146.334 92.6657 146.9 93.0469C147.466 93.428 148.147 93.6186 148.942 93.6186C149.737 93.6186 150.417 93.428 150.984 93.0469C151.55 92.6657 151.983 92.1049 152.282 91.3643C152.582 90.6238 152.732 89.7145 152.732 88.6364ZM173.953 97V80.2727H178.078V93.6513H185.012V97H173.953Z" fill="black"/>
</svg>
