<svg width="200" height="100" viewBox="0 0 200 100" fill="none" xmlns="http://www.w3.org/2000/svg">
<path d="M48.655 19.144C48.9323 19.4213 49.231 19.8053 49.551 20.296C49.8923 20.7653 50.063 21.1707 50.063 21.512C50.063 22.0453 49.903 22.4933 49.583 22.856C49.2843 23.2187 48.9323 23.496 48.527 23.688C48.1217 23.8587 47.7483 23.944 47.407 23.944C47.0657 23.944 46.767 23.848 46.511 23.656C46.2763 23.4427 45.967 23.144 45.583 22.76C45.007 22.2053 44.3777 21.7893 43.695 21.512C43.0123 21.2347 42.2977 21.096 41.551 21.096C41.103 21.096 40.6763 21.1813 40.271 21.352C39.887 21.5013 39.5777 21.736 39.343 22.056C39.1083 22.3547 38.991 22.728 38.991 23.176C38.991 23.624 39.1723 24.0507 39.535 24.456C39.8977 24.8613 40.5377 25.2773 41.455 25.704C43.3537 26.536 44.879 27.368 46.031 28.2C47.2043 29.032 48.0577 29.9493 48.591 30.952C49.1457 31.9333 49.423 33.064 49.423 34.344C49.423 35.3893 49.1883 36.3707 48.719 37.288C48.2497 38.184 47.599 38.9733 46.767 39.656C45.9563 40.3173 45.007 40.8293 43.919 41.192C42.831 41.5547 41.679 41.7147 40.463 41.672C39.695 41.6507 38.927 41.5547 38.159 41.384C37.391 41.2347 36.655 41 35.951 40.68C35.2683 40.36 34.6497 39.944 34.095 39.432C33.6043 38.9627 33.2097 38.4507 32.911 37.896C32.6337 37.3413 32.495 36.8933 32.495 36.552C32.495 35.976 32.6443 35.496 32.943 35.112C33.2417 34.7067 33.5937 34.408 33.999 34.216C34.4257 34.0027 34.8097 33.896 35.151 33.896C35.4923 33.896 35.7697 33.992 35.983 34.184C36.2177 34.376 36.4203 34.5893 36.591 34.824C37.0177 35.4213 37.583 35.8693 38.287 36.168C39.0123 36.4453 39.727 36.584 40.431 36.584C40.9217 36.584 41.3803 36.4987 41.807 36.328C42.2337 36.136 42.575 35.8907 42.831 35.592C43.087 35.2933 43.215 34.9627 43.215 34.6C43.215 34.1307 43.119 33.736 42.927 33.416C42.7563 33.0747 42.4683 32.7653 42.063 32.488C41.6577 32.1893 41.1137 31.9013 40.431 31.624C38.0417 30.6213 36.1963 29.512 34.895 28.296C33.615 27.08 32.975 25.4907 32.975 23.528C32.975 22.0133 33.359 20.6907 34.127 19.56C34.9163 18.4293 35.951 17.5547 37.231 16.936C38.511 16.296 39.9083 15.976 41.423 15.976C42.2977 15.976 43.1617 16.0827 44.015 16.296C44.8683 16.488 45.6897 16.8187 46.479 17.288C47.2683 17.736 47.9937 18.3547 48.655 19.144ZM54.4858 17.672C54.5711 16.9253 54.7951 16.4133 55.1578 16.136C55.5204 15.8373 56.0751 15.688 56.8218 15.688C57.3764 15.688 57.8991 15.752 58.3898 15.88C58.9018 15.9867 59.2431 16.0933 59.4138 16.2C59.8618 16.0507 60.4378 15.9547 61.1418 15.912C61.8458 15.848 62.5071 15.816 63.1258 15.816C64.3631 15.816 65.4511 15.848 66.3898 15.912C67.3498 15.9547 68.0538 16.008 68.5018 16.072C69.3764 16.1787 69.9524 16.4773 70.2298 16.968C70.5071 17.4373 70.6458 17.9813 70.6458 18.6C70.6458 19.3893 70.4538 20.04 70.0698 20.552C69.7071 21.0427 69.1204 21.2453 68.3098 21.16C67.9471 21.1173 67.4778 21.0747 66.9018 21.032C66.3471 20.9893 65.7818 20.9573 65.2058 20.936C64.6511 20.8933 64.1818 20.872 63.7978 20.872C63.1578 20.872 62.5178 20.8933 61.8778 20.936C61.2378 20.9787 60.5978 21.0533 59.9578 21.16L59.5417 25.48C59.9898 25.4373 60.5338 25.416 61.1738 25.416C61.8138 25.3947 62.4858 25.384 63.1898 25.384C63.9151 25.384 64.5978 25.4053 65.2378 25.448C65.8778 25.4693 66.4111 25.5227 66.8378 25.608C67.4991 25.7147 67.9791 26.0027 68.2778 26.472C68.5978 26.9413 68.7578 27.4853 68.7578 28.104C68.7578 28.7653 68.5764 29.384 68.2138 29.96C67.8724 30.5147 67.3818 30.7493 66.7418 30.664C65.5258 30.536 64.2458 30.4507 62.9018 30.408C61.5791 30.3653 60.3524 30.3973 59.2218 30.504C59.1364 31.464 59.0511 32.4347 58.9658 33.416C58.9018 34.376 58.8271 35.336 58.7418 36.296C59.6378 36.1893 60.6298 36.1147 61.7178 36.072C62.8271 36.008 63.8831 35.9653 64.8858 35.944C65.9098 35.9227 66.7418 35.9227 67.3818 35.944C68.1711 35.9653 68.7044 36.232 68.9818 36.744C69.2804 37.256 69.4298 37.8533 69.4298 38.536C69.4298 39.176 69.2698 39.7627 68.9498 40.296C68.6511 40.8293 68.0751 41.0853 67.2218 41.064C65.6004 41 64.1604 40.9787 62.9018 41C61.6431 41.0213 60.4911 41.064 59.4458 41.128C58.4218 41.2133 57.4191 41.32 56.4378 41.448C55.7764 41.512 55.1578 41.5013 54.5818 41.416C54.0058 41.3307 53.5471 41.1173 53.2057 40.776C52.8644 40.4347 52.7151 39.912 52.7578 39.208C52.9924 35.7093 53.2484 32.1147 53.5258 28.424C53.8244 24.7333 54.1444 21.1493 54.4858 17.672ZM92.533 18.696C93.045 19.1013 93.3543 19.4533 93.461 19.752C93.589 20.0507 93.653 20.296 93.653 20.488C93.653 20.9147 93.525 21.3733 93.269 21.864C93.0343 22.3333 92.7357 22.7387 92.373 23.08C92.0103 23.4 91.6477 23.56 91.285 23.56C91.029 23.56 90.773 23.4853 90.517 23.336C90.2823 23.1867 89.9517 22.952 89.525 22.632C89.333 22.4613 89.0557 22.28 88.693 22.088C88.3303 21.8747 87.8823 21.6933 87.349 21.544C86.837 21.3947 86.2077 21.32 85.461 21.32C84.7357 21.32 83.9677 21.48 83.157 21.8C82.3677 22.12 81.621 22.6213 80.917 23.304C80.213 23.9867 79.637 24.8507 79.189 25.896C78.7623 26.92 78.549 28.1573 78.549 29.608C78.549 30.8667 78.6983 31.9227 78.997 32.776C79.317 33.608 79.733 34.2693 80.245 34.76C80.757 35.2507 81.3223 35.6027 81.941 35.816C82.581 36.008 83.2317 36.104 83.893 36.104C84.661 36.104 85.3757 35.9973 86.037 35.784C86.6983 35.5707 87.3383 35.2613 87.957 34.856C88.5757 34.4293 89.1837 33.9173 89.781 33.32C89.9517 33.1493 90.1223 33.0427 90.293 33C90.485 32.936 90.6557 32.904 90.805 32.904C91.253 32.904 91.6903 33.0853 92.117 33.448C92.5437 33.8107 92.8957 34.2267 93.173 34.696C93.4503 35.1653 93.589 35.5813 93.589 35.944C93.589 36.4133 93.5037 36.7973 93.333 37.096C93.1623 37.3947 92.9277 37.6613 92.629 37.896C91.1997 39.1333 89.7383 40.04 88.245 40.616C86.773 41.192 85.1837 41.48 83.477 41.48C81.6423 41.48 80.0317 41.16 78.645 40.52C77.2583 39.8587 76.0957 38.9733 75.157 37.864C74.2397 36.7547 73.5463 35.5067 73.077 34.12C72.6077 32.7333 72.373 31.2933 72.373 29.8C72.373 28.0507 72.6823 26.3653 73.301 24.744C73.941 23.1227 74.8263 21.6827 75.957 20.424C77.0877 19.144 78.421 18.1307 79.957 17.384C81.5143 16.6373 83.1997 16.264 85.013 16.264C85.9517 16.264 86.869 16.36 87.765 16.552C88.661 16.744 89.5143 17.0213 90.325 17.384C91.1357 17.7467 91.8717 18.184 92.533 18.696ZM111.046 16.488C111.387 16.7013 111.632 16.9893 111.782 17.352C111.931 17.6933 112.006 18.0773 112.006 18.504C112.006 18.9733 111.91 19.432 111.718 19.88C111.547 20.328 111.302 20.7013 110.982 21C110.662 21.2987 110.299 21.448 109.894 21.448C109.808 21.448 109.712 21.4373 109.606 21.416C109.52 21.3947 109.424 21.3733 109.318 21.352C109.104 21.3093 108.902 21.2773 108.71 21.256C108.539 21.2133 108.358 21.192 108.166 21.192C107.974 21.1707 107.76 21.16 107.526 21.16C106.758 21.16 106.022 21.352 105.318 21.736C104.635 22.12 104.016 22.6427 103.462 23.304C102.928 23.9653 102.502 24.7227 102.182 25.576C101.862 26.4293 101.702 27.3253 101.702 28.264C101.702 29.9067 101.904 31.336 102.31 32.552C102.736 33.768 103.323 34.7173 104.07 35.4C104.838 36.0613 105.734 36.392 106.758 36.392C107.398 36.392 108.016 36.2107 108.614 35.848C109.211 35.4853 109.744 34.9733 110.214 34.312C110.704 33.6293 111.088 32.84 111.366 31.944C111.664 31.048 111.814 30.0773 111.814 29.032C111.814 28.456 111.76 27.8373 111.654 27.176C111.568 26.5147 111.398 25.8533 111.142 25.192C110.907 24.5093 110.566 23.88 110.118 23.304C109.819 22.8987 109.606 22.504 109.478 22.12C109.35 21.736 109.296 21.3733 109.318 21.032C109.36 20.2 109.68 19.5067 110.278 18.952C110.896 18.376 111.59 18.088 112.358 18.088C112.614 18.088 112.859 18.1307 113.094 18.216C113.35 18.28 113.595 18.3867 113.83 18.536C114.064 18.6853 114.288 18.8773 114.502 19.112C115.035 19.688 115.568 20.488 116.102 21.512C116.635 22.536 117.072 23.6773 117.414 24.936C117.776 26.1947 117.958 27.496 117.958 28.84C117.958 30.6747 117.68 32.36 117.126 33.896C116.592 35.432 115.814 36.7653 114.79 37.896C113.766 39.0267 112.539 39.9013 111.11 40.52C109.702 41.1387 108.123 41.448 106.374 41.448C104.582 41.448 103.003 41.1173 101.638 40.456C100.294 39.7947 99.1735 38.8667 98.2775 37.672C97.3815 36.4773 96.6988 35.08 96.2295 33.48C95.7815 31.8587 95.5575 30.1093 95.5575 28.232C95.5575 26.504 95.8668 24.8827 96.4855 23.368C97.1042 21.8533 97.9575 20.5307 99.0455 19.4C100.155 18.2693 101.435 17.384 102.885 16.744C104.358 16.104 105.926 15.784 107.59 15.784C108.336 15.784 108.966 15.8267 109.478 15.912C109.99 15.976 110.512 16.168 111.046 16.488ZM126.487 39.72C126.444 40.4453 126.177 40.936 125.687 41.192C125.217 41.4693 124.567 41.608 123.735 41.608C123.308 41.608 122.849 41.544 122.359 41.416C121.889 41.3093 121.484 41.096 121.143 40.776C120.823 40.456 120.684 39.9973 120.727 39.4C120.855 37.6507 120.972 35.8053 121.079 33.864C121.185 31.9013 121.26 29.9707 121.303 28.072C121.367 26.152 121.399 24.4027 121.399 22.824C121.42 21.224 121.409 19.9227 121.367 18.92C121.345 18.1093 121.644 17.4267 122.263 16.872C122.881 16.3173 123.607 16.04 124.439 16.04C125.057 16.04 125.655 16.1467 126.231 16.36C126.807 16.552 127.297 16.9893 127.703 17.672C128.023 18.2053 128.417 18.8453 128.887 19.592C129.356 20.3173 129.868 21.128 130.423 22.024C130.999 22.8987 131.585 23.816 132.183 24.776C132.801 25.736 133.409 26.7173 134.007 27.72C134.625 28.7013 135.223 29.6613 135.799 30.6C135.841 29.4907 135.895 28.3813 135.958 27.272C136.023 26.1413 136.087 25.0427 136.151 23.976C136.215 22.888 136.279 21.8533 136.343 20.872C136.428 19.8907 136.503 18.9947 136.567 18.184C136.609 17.5013 136.844 17.0107 137.271 16.712C137.697 16.4133 138.337 16.2533 139.191 16.232C140.215 16.1893 141.004 16.4027 141.559 16.872C142.135 17.3413 142.38 17.992 142.295 18.824C142.209 19.592 142.124 20.6053 142.039 21.864C141.953 23.1013 141.868 24.488 141.783 26.024C141.697 27.5387 141.612 29.1067 141.527 30.728C141.463 32.328 141.409 33.896 141.367 35.432C141.324 36.9467 141.292 38.3333 141.271 39.592C141.271 40.168 141.1 40.616 140.759 40.936C140.417 41.256 140.012 41.48 139.543 41.608C139.095 41.7573 138.679 41.832 138.295 41.832C137.612 41.832 136.972 41.704 136.375 41.448C135.799 41.192 135.361 40.7973 135.062 40.264C134.487 39.24 133.879 38.216 133.239 37.192C132.62 36.1467 131.98 35.0907 131.319 34.024C130.657 32.9573 129.975 31.88 129.271 30.792C128.567 29.704 127.852 28.6053 127.127 27.496C127.084 29.6507 126.999 31.752 126.871 33.8C126.764 35.848 126.636 37.8213 126.487 39.72ZM146.275 18.664C146.275 18.088 146.414 17.64 146.691 17.32C146.99 17 147.363 16.776 147.811 16.648C148.259 16.52 148.718 16.456 149.187 16.456C149.912 16.456 150.574 16.6053 151.171 16.904C151.79 17.2027 152.088 17.7893 152.067 18.664C152.046 22.0987 151.982 25.6507 151.875 29.32C151.79 32.968 151.662 36.5093 151.491 39.944C151.47 40.7973 151.15 41.3733 150.531 41.672C149.934 41.992 149.262 42.152 148.515 42.152C148.046 42.152 147.587 42.0773 147.139 41.928C146.691 41.8 146.328 41.5547 146.051 41.192C145.795 40.8293 145.678 40.3067 145.699 39.624C145.87 36.3387 145.998 32.8827 146.083 29.256C146.19 25.6293 146.254 22.0987 146.275 18.664ZM150.211 21.992C149.486 22.0773 148.984 21.8747 148.707 21.384C148.451 20.872 148.323 20.2853 148.323 19.624C148.323 18.9627 148.451 18.376 148.707 17.864C148.984 17.352 149.486 17.0427 150.211 16.936C150.382 16.8933 150.68 16.872 151.107 16.872C151.555 16.8507 152.035 16.84 152.547 16.84C155.064 16.84 157.24 17.1707 159.075 17.832C160.931 18.472 162.456 19.368 163.651 20.52C164.867 21.672 165.774 22.9947 166.371 24.488C166.968 25.9813 167.267 27.5707 167.267 29.256C167.267 31.1973 166.904 32.9253 166.179 34.44C165.475 35.9333 164.483 37.192 163.203 38.216C161.944 39.24 160.451 40.0187 158.723 40.552C157.016 41.064 155.171 41.32 153.187 41.32C152.206 41.32 151.416 41.3093 150.819 41.288C150.243 41.2667 149.774 41.2347 149.411 41.192C148.707 41.1067 148.206 40.7973 147.907 40.264C147.63 39.7307 147.491 39.144 147.491 38.504C147.491 37.5867 147.672 36.9467 148.035 36.584C148.398 36.2213 148.856 36.0613 149.411 36.104C149.752 36.1253 150.168 36.1573 150.659 36.2C151.171 36.2427 151.758 36.264 152.419 36.264C154.382 36.264 155.992 35.9653 157.251 35.368C158.51 34.7493 159.448 33.9173 160.067 32.872C160.686 31.8053 160.995 30.6107 160.995 29.288C160.995 28.3493 160.856 27.4427 160.579 26.568C160.302 25.672 159.843 24.872 159.203 24.168C158.563 23.464 157.699 22.9093 156.611 22.504C155.544 22.0987 154.222 21.896 152.643 21.896C152.131 21.896 151.64 21.9067 151.171 21.928C150.723 21.9493 150.403 21.9707 150.211 21.992ZM51.5466 66.896C51.5893 66.1493 51.8986 65.648 52.4746 65.392C53.0506 65.1147 53.7013 64.976 54.4266 64.976C54.96 64.976 55.472 65.0293 55.9626 65.136C56.4746 65.2427 56.8906 65.4347 57.2106 65.712C57.5306 65.9893 57.68 66.384 57.6586 66.896L56.7626 88.208C56.7413 88.6987 56.5706 89.0827 56.2506 89.36C55.9306 89.6373 55.5253 89.8293 55.0346 89.936C54.544 90.0427 54.032 90.096 53.4986 90.096C52.7733 90.096 52.112 89.968 51.5146 89.712C50.9173 89.4347 50.6293 88.9333 50.6506 88.208L51.5466 66.896ZM53.8506 79.6C53.1893 79.6427 52.7093 79.4507 52.4106 79.024C52.1333 78.576 51.9946 77.9787 51.9946 77.232C51.9946 76.3573 52.1546 75.7067 52.4746 75.28C52.816 74.8533 53.2853 74.6187 53.8826 74.576C55.2053 74.4693 56.6133 74.3947 58.1066 74.352C59.6213 74.288 61.136 74.2453 62.6506 74.224C64.1653 74.2027 65.6266 74.2027 67.0346 74.224C68.4426 74.2453 69.7226 74.2987 70.8746 74.384C71.664 74.4267 72.2293 74.6293 72.5706 74.992C72.9333 75.3547 73.1146 75.9093 73.1146 76.656C73.1146 77.7013 72.8906 78.448 72.4426 78.896C72.016 79.3227 71.312 79.504 70.3306 79.44C68.816 79.3547 67.408 79.3013 66.1066 79.28C64.8266 79.2373 63.5573 79.2267 62.2986 79.248C61.04 79.2693 59.728 79.312 58.3626 79.376C56.9973 79.4187 55.4933 79.4933 53.8506 79.6ZM65.9146 67.056C66 66.224 66.3733 65.68 67.0346 65.424C67.696 65.168 68.4213 65.04 69.2106 65.04C70.1493 65.04 70.8746 65.2 71.3866 65.52C71.8986 65.84 72.1226 66.384 72.0586 67.152C71.9093 68.88 71.7706 70.6187 71.6426 72.368C71.5146 74.1173 71.408 75.9307 71.3226 77.808C71.2586 79.6853 71.2266 81.68 71.2266 83.792C71.2266 84.688 71.2266 85.5627 71.2266 86.416C71.248 87.2693 71.2693 87.984 71.2906 88.56C71.312 89.2853 71.024 89.776 70.4266 90.032C69.8293 90.3093 69.1573 90.448 68.4106 90.448C67.6213 90.448 66.8853 90.3093 66.2026 90.032C65.5413 89.776 65.2 89.2853 65.1786 88.56C65.1786 87.984 65.168 87.28 65.1466 86.448C65.1466 85.616 65.1466 84.752 65.1466 83.856C65.1466 80.912 65.2106 78 65.3386 75.12C65.488 72.24 65.68 69.552 65.9146 67.056ZM81.1954 88.432C80.9607 89.1573 80.5554 89.68 79.9794 90C79.4247 90.32 78.5394 90.48 77.3234 90.48C76.342 90.48 75.67 90.2987 75.3074 89.936C74.9447 89.552 74.7634 89.168 74.7634 88.784C74.7634 88.3147 74.838 87.8453 74.9874 87.376C75.158 86.8853 75.318 86.4373 75.4674 86.032C76.1927 84.176 76.9074 82.4053 77.6114 80.72C78.3367 79.0133 79.0407 77.392 79.7234 75.856C80.406 74.2987 81.0887 72.816 81.7714 71.408C82.454 70 83.126 68.656 83.7874 67.376C84.2567 66.4587 84.8007 65.7973 85.4194 65.392C86.0594 64.9653 86.806 64.752 87.6594 64.752C88.726 64.752 89.622 64.9547 90.3474 65.36C91.094 65.7653 91.5954 66.3093 91.8514 66.992C91.9154 67.1413 92.086 67.6427 92.3634 68.496C92.6407 69.3493 92.9927 70.4267 93.4194 71.728C93.846 73.0293 94.3047 74.4267 94.7954 75.92C95.3074 77.4133 95.83 78.896 96.3634 80.368C96.8967 81.84 97.4087 83.1733 97.8994 84.368C98.39 85.5627 98.8167 86.4907 99.1794 87.152C99.3074 87.3653 99.414 87.6213 99.4994 87.92C99.606 88.2187 99.6594 88.4533 99.6594 88.624C99.6594 89.0933 99.3714 89.5413 98.7954 89.968C98.2407 90.3947 97.4727 90.608 96.4914 90.608C95.8087 90.608 95.2114 90.5333 94.6994 90.384C94.1874 90.2347 93.7714 89.8507 93.4514 89.232C92.8114 88.016 92.2247 86.6187 91.6914 85.04C91.1794 83.44 90.6994 81.7973 90.2514 80.112C89.8034 78.4053 89.3554 76.7733 88.9074 75.216C88.4807 73.6373 88.0434 72.2613 87.5954 71.088C86.55 73.3067 85.6327 75.4613 84.8434 77.552C84.0754 79.6213 83.4034 81.5733 82.8274 83.408C82.2514 85.2427 81.7074 86.9173 81.1954 88.432ZM81.7714 84.272C81.4514 84.2933 81.1314 84.0267 80.8114 83.472C80.4914 82.9173 80.3314 82.2987 80.3314 81.616C80.3314 81.04 80.4914 80.5813 80.8114 80.24C81.1527 79.8987 81.5474 79.632 81.9954 79.44C82.4647 79.2267 82.902 79.0773 83.3074 78.992C83.862 78.864 84.47 78.768 85.1314 78.704C85.814 78.64 86.55 78.6187 87.3394 78.64C88.1287 78.64 88.9607 78.7147 89.8354 78.864C89.9634 78.8853 90.294 78.8747 90.8274 78.832C91.382 78.7893 92.0114 78.736 92.7154 78.672C93.4194 78.608 94.07 78.544 94.6674 78.48C95.2647 78.416 95.6807 78.3733 95.9154 78.352C96.5554 78.288 97.078 78.4267 97.4834 78.768C97.8887 79.1093 98.0914 79.6427 98.0914 80.368C98.0914 81.0507 97.846 81.6267 97.3554 82.096C96.8647 82.544 96.2354 82.9067 95.4674 83.184C94.7207 83.4613 93.9527 83.664 93.1634 83.792C92.3954 83.8987 91.7234 83.952 91.1474 83.952C89.9314 83.952 88.8327 83.952 87.8514 83.952C86.8914 83.9307 85.9314 83.9413 84.9714 83.984C84.0327 84.0267 82.966 84.1227 81.7714 84.272ZM107.914 88.528C107.829 89.1253 107.52 89.552 106.986 89.808C106.453 90.0427 105.642 90.16 104.554 90.16C103.765 90.16 103.104 90 102.57 89.68C102.058 89.36 101.845 88.816 101.93 88.048C102.229 85.5733 102.474 83.1413 102.666 80.752C102.858 78.3413 102.986 75.9733 103.05 73.648C103.136 71.3013 103.125 69.008 103.018 66.768C102.997 66.0213 103.178 65.4987 103.562 65.2C103.946 64.9013 104.661 64.752 105.706 64.752C106.538 64.752 107.21 64.9227 107.722 65.264C108.256 65.6053 108.757 66.1707 109.226 66.96C109.44 67.3013 109.685 67.7067 109.962 68.176C110.261 68.6453 110.592 69.1787 110.954 69.776C111.317 70.352 111.722 71.0027 112.17 71.728C112.64 72.432 113.141 73.2 113.674 74.032C114.229 74.864 114.826 75.76 115.466 76.72C116.106 77.6587 116.789 78.672 117.514 79.76C117.493 78.2667 117.493 77.008 117.514 75.984C117.536 74.9387 117.578 73.9893 117.642 73.136C117.706 72.2827 117.781 71.408 117.866 70.512C117.973 69.616 118.09 68.56 118.218 67.344C118.304 66.5333 118.549 65.9467 118.954 65.584C119.381 65.2213 120.245 65.04 121.546 65.04C122.677 65.04 123.392 65.2107 123.69 65.552C124.01 65.8933 124.138 66.3947 124.074 67.056C123.904 68.72 123.744 70.3413 123.594 71.92C123.466 73.4773 123.349 75.088 123.242 76.752C123.157 78.416 123.082 80.2187 123.018 82.16C122.954 84.08 122.912 86.2347 122.89 88.624C122.89 89.1573 122.709 89.5733 122.346 89.872C121.984 90.1707 121.269 90.32 120.202 90.32C119.242 90.32 118.506 90.1387 117.994 89.776C117.482 89.4133 116.949 88.848 116.394 88.08C115.925 87.44 115.477 86.8107 115.05 86.192C114.624 85.552 114.186 84.912 113.738 84.272C113.29 83.6107 112.81 82.9067 112.298 82.16C111.808 81.4133 111.264 80.6133 110.666 79.76C110.069 78.9067 109.397 77.9573 108.65 76.912C108.672 77.9787 108.672 79.0133 108.65 80.016C108.629 80.9973 108.586 81.9573 108.522 82.896C108.458 83.8347 108.373 84.7733 108.266 85.712C108.16 86.6293 108.042 87.568 107.914 88.528ZM129.64 84.528C130.579 84.6133 131.549 84.688 132.552 84.752C133.576 84.816 134.643 84.848 135.752 84.848C137.501 84.848 138.952 84.5387 140.104 83.92C141.256 83.3013 142.12 82.448 142.696 81.36C143.272 80.2507 143.56 79.0027 143.56 77.616C143.56 76.0373 143.304 74.7147 142.792 73.648C142.28 72.5813 141.555 71.7707 140.616 71.216C139.677 70.6613 138.557 70.384 137.256 70.384C136.851 70.384 136.467 70.3947 136.104 70.416C135.741 70.416 135.379 70.4267 135.016 70.448C134.653 70.4693 134.259 70.5227 133.832 70.608C133.853 71.2907 133.875 72.0693 133.896 72.944C133.939 73.7973 133.981 74.6933 134.024 75.632C134.067 76.5493 134.099 77.4667 134.12 78.384C134.141 79.28 134.152 80.112 134.152 80.88C134.173 81.648 134.173 82.2987 134.152 82.832C134.131 83.3867 133.96 83.8027 133.64 84.08C133.341 84.3573 132.968 84.5493 132.52 84.656C132.072 84.7413 131.624 84.784 131.176 84.784C130.387 84.784 129.715 84.6133 129.16 84.272C128.627 83.9307 128.371 83.2373 128.392 82.192C128.413 81.04 128.424 80.0587 128.424 79.248C128.424 78.416 128.413 77.6373 128.392 76.912C128.371 76.1867 128.339 75.4293 128.296 74.64C128.253 73.8293 128.2 72.8907 128.136 71.824C128.093 70.7573 128.051 69.456 128.008 67.92C127.987 67.1947 128.189 66.704 128.616 66.448C129.064 66.1707 129.779 65.9253 130.76 65.712C131.464 65.5413 132.179 65.424 132.904 65.36C133.651 65.2747 134.397 65.232 135.144 65.232C138.088 65.232 140.659 65.7333 142.856 66.736C145.053 67.7387 146.76 69.1573 147.976 70.992C149.192 72.8267 149.8 74.992 149.8 77.488C149.8 80.0907 149.203 82.32 148.008 84.176C146.835 86.032 145.192 87.4507 143.08 88.432C140.989 89.4133 138.568 89.904 135.816 89.904C134.067 89.904 132.637 89.872 131.528 89.808C130.419 89.744 129.608 89.6373 129.096 89.488C128.435 89.296 127.933 88.976 127.592 88.528C127.251 88.0587 127.08 87.536 127.08 86.96C127.08 86.192 127.293 85.5733 127.72 85.104C128.168 84.6347 128.808 84.4427 129.64 84.528Z" fill="#C91114"/>
</svg>
