<svg width="100" height="100" viewBox="0 0 100 100" fill="none" xmlns="http://www.w3.org/2000/svg">
<path d="M48 4.96143C63.823 4.96143 76.4998 17.3263 76.5 32.397C76.5 47.4678 63.8231 59.8335 48 59.8335C32.1769 59.8335 19.5 47.4678 19.5 32.397C19.5002 17.3263 32.177 4.96143 48 4.96143Z" stroke="#6CB75D" stroke-width="5"/>
<path d="M41.9213 44.4086C40.7345 45.5547 39.4611 45.5547 38.2742 44.4088L27.6156 34.744C26.4287 33.5978 26.4287 31.74 27.6156 30.5939L38.2742 20.9295C39.4611 19.7837 40.7345 19.7835 41.9213 20.9295C43.1081 22.0756 43.1079 23.3052 41.9213 24.4514L37.1013 29.734L66.8429 29.734C68.5214 29.734 69.8821 31.048 69.8821 32.6689C69.8821 34.2898 68.5214 35.6038 66.8429 35.6038H37.1013L41.9213 40.8867C43.137 42.0607 43.1081 43.2626 41.9213 44.4086Z" fill="#1B690C"/>
<path d="M14.1326 79.4567C14.0474 78.5973 13.6816 77.9297 13.0353 77.4538C12.389 76.978 11.5119 76.7401 10.4039 76.7401C9.6511 76.7401 9.01545 76.8466 8.49698 77.0597C7.97852 77.2656 7.58079 77.5533 7.3038 77.9226C7.03391 78.2919 6.89897 78.7109 6.89897 79.1797C6.88477 79.5703 6.96644 79.9112 7.144 80.2024C7.32866 80.4936 7.58079 80.7457 7.90039 80.9588C8.21999 81.1648 8.58931 81.3459 9.00835 81.5021C9.42738 81.6513 9.87482 81.7791 10.3507 81.8857L12.3109 82.3544C13.2626 82.5675 14.1362 82.8516 14.9316 83.2067C15.7271 83.5618 16.416 83.9986 16.9984 84.517C17.5808 85.0355 18.0318 85.6463 18.3514 86.3494C18.6781 87.0526 18.845 87.8587 18.8521 88.7678C18.845 90.103 18.5041 91.2607 17.8294 92.2408C17.1618 93.2138 16.1958 93.9702 14.9316 94.5099C13.6745 95.0426 12.1582 95.3089 10.3826 95.3089C8.62127 95.3089 7.08718 95.0391 5.78036 94.4993C4.48065 93.9595 3.46502 93.1605 2.73349 92.1023C2.00906 91.0369 1.62908 89.7195 1.59357 88.1499H6.05735C6.10707 88.8814 6.31658 89.4922 6.6859 89.9822C7.06232 90.4652 7.56303 90.831 8.18803 91.0795C8.82013 91.321 9.53391 91.4418 10.3294 91.4418C11.1106 91.4418 11.7889 91.3281 12.3642 91.1009C12.9466 90.8736 13.3975 90.5575 13.7172 90.1527C14.0368 89.7479 14.1966 89.2827 14.1966 88.7571C14.1966 88.267 14.051 87.8551 13.7598 87.5213C13.4757 87.1875 13.0566 86.9034 12.5027 86.669C11.9558 86.4347 11.2846 86.2216 10.4892 86.0298L8.11346 85.4332C6.27397 84.9858 4.82156 84.2862 3.75621 83.3345C2.69087 82.3828 2.16175 81.1009 2.16886 79.4886C2.16175 78.1676 2.51332 77.0135 3.22354 76.0263C3.94087 75.0391 4.92454 74.2685 6.17454 73.7145C7.42454 73.1605 8.84499 72.8835 10.4359 72.8835C12.0552 72.8835 13.4686 73.1605 14.676 73.7145C15.8904 74.2685 16.8351 75.0391 17.5098 76.0263C18.1845 77.0135 18.5325 78.157 18.5538 79.4567H14.1326ZM21.1239 76.9851V73.1818H39.043V76.9851H32.3633V95H27.8036V76.9851H21.1239ZM43.0886 95H38.1454L45.6774 73.1818H51.622L59.1433 95H54.2001L48.7349 78.1676H48.5645L43.0886 95ZM42.7797 86.424H54.4558V90.0249H42.7797V86.424ZM61.7694 95V73.1818H70.3773C72.025 73.1818 73.4313 73.4766 74.5961 74.0661C75.7679 74.6484 76.6593 75.4759 77.2701 76.5483C77.888 77.6136 78.1969 78.8672 78.1969 80.3089C78.1969 81.7578 77.8844 83.0043 77.2594 84.0483C76.6344 85.0852 75.7289 85.8807 74.5428 86.4347C73.3638 86.9886 71.9363 87.2656 70.2601 87.2656H64.4966V83.5582H69.5144C70.3951 83.5582 71.1266 83.4375 71.709 83.196C72.2914 82.9545 72.7246 82.5923 73.0087 82.1094C73.2999 81.6264 73.4455 81.0263 73.4455 80.3089C73.4455 79.5845 73.2999 78.9737 73.0087 78.4766C72.7246 77.9794 72.2878 77.603 71.6983 77.3473C71.1159 77.0845 70.3809 76.9531 69.4931 76.9531H66.3823V95H61.7694ZM73.552 85.071L78.9746 95H73.8823L68.5769 85.071H73.552ZM80.6259 76.9851V73.1818H98.5449V76.9851H91.8652V95H87.3056V76.9851H80.6259Z" fill="#214341"/>
</svg>
