<svg width="200" height="100" viewBox="0 0 200 100" fill="none" xmlns="http://www.w3.org/2000/svg">
<path d="M88.44 56.98C85.5933 56.98 83.1433 56.35 81.09 55.09C79.0833 53.83 77.5433 52.08 76.47 49.84C75.4433 47.6 74.93 45.01 74.93 42.07V13.86H85.57V42.07C85.57 43.1433 85.7333 44.1 86.06 44.94C86.3867 45.78 86.9 46.4567 87.6 46.97C88.3 47.4367 89.21 47.67 90.33 47.67C91.2633 47.67 92.15 47.5767 92.99 47.39C93.83 47.2033 94.6233 46.9467 95.37 46.62L98.38 54.39C97.3533 55.09 96 55.6967 94.32 56.21C92.64 56.7233 90.68 56.98 88.44 56.98ZM68.49 31.36V23.03H94.88V31.36H68.49ZM119.417 56.98C116.99 56.98 114.633 56.5833 112.347 55.79C110.06 54.95 108.007 53.7833 106.187 52.29C104.413 50.75 102.99 48.93 101.917 46.83C100.89 44.6833 100.377 42.28 100.377 39.62C100.377 36.96 100.89 34.5567 101.917 32.41C102.99 30.2633 104.413 28.4433 106.187 26.95C108.007 25.41 110.06 24.2433 112.347 23.45C114.633 22.61 116.99 22.19 119.417 22.19C121.797 22.19 124.107 22.61 126.347 23.45C128.633 24.2433 130.687 25.41 132.507 26.95C134.327 28.4433 135.773 30.2633 136.847 32.41C137.92 34.5567 138.457 36.96 138.457 39.62C138.457 42.28 137.943 44.6833 136.917 46.83C135.89 48.93 134.49 50.75 132.717 52.29C130.943 53.7833 128.913 54.95 126.627 55.79C124.34 56.5833 121.937 56.98 119.417 56.98ZM119.417 48.72C120.863 48.72 122.17 48.37 123.337 47.67C124.55 46.9233 125.507 45.8733 126.207 44.52C126.953 43.1667 127.327 41.5333 127.327 39.62C127.327 37.7067 126.953 36.0733 126.207 34.72C125.507 33.3667 124.55 32.34 123.337 31.64C122.17 30.8933 120.863 30.52 119.417 30.52C118.017 30.52 116.71 30.8933 115.497 31.64C114.283 32.34 113.303 33.3667 112.557 34.72C111.857 36.0733 111.507 37.7067 111.507 39.62C111.507 41.5333 111.857 43.1667 112.557 44.52C113.303 45.8733 114.283 46.9233 115.497 47.67C116.71 48.37 118.017 48.72 119.417 48.72ZM167.987 56.98C165.187 56.98 162.784 56.42 160.777 55.3C158.817 54.18 157.137 52.85 155.737 51.31C154.384 49.7233 153.217 48.3 152.237 47.04V39.83C153.217 41.1367 154.407 42.4433 155.807 43.75C157.207 45.01 158.701 46.06 160.287 46.9C161.921 47.6933 163.554 48.09 165.187 48.09C166.681 48.09 167.987 47.88 169.107 47.46C170.274 47.04 171.254 46.4567 172.047 45.71C172.841 44.9167 173.447 43.9833 173.867 42.91C174.287 41.8367 174.497 40.67 174.497 39.41C174.497 37.8233 174.171 36.4 173.517 35.14C172.911 33.88 172.001 32.9 170.787 32.2C169.621 31.4533 168.221 31.08 166.587 31.08C164.954 31.08 163.204 31.78 161.337 33.18C159.471 34.5333 157.721 36.4467 156.087 38.92C154.454 41.3933 153.124 44.2867 152.097 47.6V39.97C153.171 36.33 154.687 33.18 156.647 30.52C158.607 27.86 160.777 25.8067 163.157 24.36C165.584 22.9133 167.987 22.19 170.367 22.19C173.074 22.19 175.571 22.9367 177.857 24.43C180.191 25.9233 182.057 27.9767 183.457 30.59C184.904 33.2033 185.627 36.19 185.627 39.55C185.627 42.0233 185.184 44.3333 184.297 46.48C183.457 48.58 182.244 50.4233 180.657 52.01C179.071 53.55 177.204 54.7633 175.057 55.65C172.911 56.5367 170.554 56.98 167.987 56.98ZM140.547 71.26V62.93H163.857V71.26H140.547ZM147.057 68.6V23.03H157.487V68.6H147.057ZM140.547 31.36V23.03H156.997V31.36H140.547Z" fill="black"/>
<rect width="64" height="58" fill="#2828F7"/>
<path d="M30.25 20.6193V14.9091H54.8381V20.6193H46.017V44H39.0852V20.6193H30.25Z" fill="white"/>
<path d="M22.233 14.9091V44H15.2017V14.9091H22.233Z" fill="white"/>
<rect x="143" width="57" height="9" fill="#2828F7"/>
<rect x="200" width="56" height="9" transform="rotate(90 200 0)" fill="#2828F7"/>
<path d="M20.3203 80.2727H24.4368V91.0458C24.4368 92.2982 24.1373 93.3872 23.5384 94.3129C22.9448 95.2331 22.1145 95.9464 21.0472 96.4528C19.9854 96.9592 18.7494 97.2124 17.3391 97.2124C15.918 97.2124 14.6738 96.9592 13.6065 96.4528C12.5393 95.9464 11.7089 95.2331 11.1154 94.3129C10.5273 93.3872 10.2333 92.2982 10.2333 91.0458V80.2727H14.358V90.6946C14.358 91.2609 14.4832 91.7673 14.7337 92.2138C14.9841 92.6548 15.3326 93.0033 15.7791 93.2592C16.2311 93.5097 16.7511 93.6349 17.3391 93.6349C17.9272 93.6349 18.4445 93.5097 18.891 93.2592C19.3429 93.0033 19.6941 92.6548 19.9446 92.2138C20.1951 91.7673 20.3203 91.2609 20.3203 90.6946V80.2727ZM46.0728 80.2727V97H42.5852L36.0266 87.4847H35.9205V97H31.7958V80.2727H35.3406L41.8175 89.7717H41.9563V80.2727H46.0728ZM57.5503 80.2727V97H53.4257V80.2727H57.5503ZM68.8319 80.2727L72.5154 92.4506H72.6543L76.3461 80.2727H80.9689L75.3414 97H69.8283L64.2008 80.2727H68.8319ZM87.6337 97V80.2727H99.3624V83.6214H91.7583V86.962H98.758V90.3107H91.7583V93.6513H99.3624V97H87.6337ZM106.748 97V80.2727H113.707C114.959 80.2727 116.043 80.4987 116.957 80.9506C117.878 81.3971 118.586 82.0397 119.081 82.8782C119.577 83.7167 119.824 84.7132 119.824 85.8675C119.824 87.0273 119.568 88.0129 119.057 88.8242C118.55 89.6355 117.829 90.2536 116.892 90.6783C115.961 91.0975 114.856 91.3072 113.576 91.3072H109.223V88.0646H112.808C113.402 88.0646 113.9 87.9884 114.303 87.8359C114.711 87.678 115.022 87.4384 115.234 87.1172C115.446 86.7905 115.553 86.3739 115.553 85.8675C115.553 85.3557 115.446 84.931 115.234 84.5934C115.022 84.2558 114.711 84.0053 114.303 83.842C113.895 83.6732 113.394 83.5888 112.8 83.5888H110.873V97H106.748ZM116.231 89.3469L120.396 97H115.904L111.82 89.3469H116.231ZM135.937 85.3203C135.883 84.7322 135.646 84.2721 135.226 83.94C134.813 83.6078 134.214 83.4418 133.43 83.4418C132.918 83.4418 132.49 83.5098 132.147 83.646C131.81 83.7766 131.556 83.9563 131.388 84.185C131.219 84.4137 131.132 84.6751 131.126 84.9691C131.115 85.2141 131.162 85.4319 131.265 85.6225C131.374 85.8076 131.535 85.971 131.747 86.1126C131.959 86.2541 132.215 86.3794 132.515 86.4883C132.82 86.5917 133.163 86.6843 133.544 86.766L134.973 87.0927C135.817 87.2724 136.558 87.5147 137.195 87.8196C137.832 88.1191 138.365 88.4785 138.796 88.8977C139.231 89.317 139.558 89.7962 139.776 90.3352C139.994 90.8743 140.105 91.4732 140.111 92.1321C140.105 93.1993 139.836 94.1114 139.302 94.8683C138.774 95.6251 138.014 96.205 137.023 96.608C136.032 97.0109 134.84 97.2124 133.446 97.2124C132.03 97.2124 130.8 97.0027 129.754 96.5835C128.709 96.1587 127.895 95.5162 127.312 94.6559C126.735 93.7901 126.438 92.6984 126.422 91.3807H130.367C130.399 91.9143 130.541 92.3608 130.791 92.7202C131.042 93.0795 131.388 93.3518 131.829 93.5369C132.275 93.7166 132.795 93.8065 133.389 93.8065C133.922 93.8065 134.377 93.7357 134.753 93.5941C135.128 93.4525 135.414 93.2565 135.61 93.006C135.812 92.7501 135.915 92.4561 135.921 92.1239C135.915 91.819 135.82 91.5576 135.635 91.3398C135.45 91.122 135.161 90.9315 134.769 90.7681C134.382 90.5993 133.881 90.4441 133.266 90.3026L131.535 89.9023C130.086 89.5702 128.943 89.0339 128.104 88.2933C127.266 87.5473 126.849 86.5373 126.855 85.2631C126.849 84.2177 127.127 83.3056 127.688 82.527C128.254 81.7429 129.035 81.133 130.032 80.6974C131.028 80.2618 132.166 80.044 133.446 80.044C134.747 80.044 135.877 80.2646 136.835 80.7056C137.799 81.1467 138.545 81.7647 139.073 82.5597C139.602 83.3492 139.871 84.2694 139.882 85.3203H135.937ZM151.123 80.2727V97H146.998V80.2727H151.123ZM157.945 83.6214V80.2727H172.148V83.6214H167.076V97H163.017V83.6214H157.945ZM178.174 80.2727H182.78L186.276 87.2397H186.415L189.911 80.2727H194.517L188.391 91.4624V97H184.299V91.4624L178.174 80.2727Z" fill="black"/>
</svg>
