<svg width="200" height="100" viewBox="0 0 200 100" fill="none" xmlns="http://www.w3.org/2000/svg">
<g clip-path="url(#clip0_53_532)">
<path d="M8 76.0028V24.002H192V76.0028H8ZM39.9793 34.668L33.8481 58.2232L27.7168 34.668H22.0196L31.2186 65.777H36.4775L45.6765 34.668H39.9793ZM71.9586 34.668H64.5126L55.3137 65.777H61.4449L63.3285 58.2232H72.7045L74.5881 65.777H80.7193L71.9586 34.668ZM114.89 60.4461H101.747V34.668H96.0495V65.777H99.1172H101.747H114.89V60.4461ZM140.738 34.668L134.607 58.2232L128.475 34.668H122.778L131.977 65.777H137.236L146.435 34.668H140.738ZM172.279 52.0031H163.956V47.1125H171.402V43.1111H163.956V38.6651H172.279V34.6637H163.956H159.574V55.9959H163.956H172.279V52.0031ZM68.0186 39.5586L71.4782 53.3369H64.5548L68.0186 39.5586Z" fill="#F74843"/>
</g>
<defs>
<clipPath id="clip0_53_532">
<rect width="184" height="52" fill="white" transform="translate(8 24)"/>
</clipPath>
</defs>
</svg>
