<svg width="200" height="100" viewBox="0 0 200 100" fill="none" xmlns="http://www.w3.org/2000/svg">
<g clip-path="url(#clip0_50_459)">
<path d="M113.328 67.3428H101.371V41.6357H111.873C116.631 41.6357 119.205 44.9677 119.205 48.9177C119.205 50.6831 118.412 52.5054 117.196 53.8694C118.993 54.9244 120.531 57.3292 120.531 59.8406C120.531 64.2311 117.487 67.3428 113.328 67.3428ZM107.017 62.1744H112.552C113.928 62.1744 114.819 61.027 114.819 59.6452V59.5919C114.819 58.1888 113.913 57.0628 112.552 57.0628H107.017V62.1744ZM107.017 51.8873H111.143C112.615 51.8873 113.505 50.7399 113.505 49.3581C113.505 47.955 112.681 46.829 111.143 46.829H107.017C107.017 46.8255 107.017 51.8873 107.017 51.8873Z" fill="#2DBE64"/>
<path d="M49.7809 67.3428L41.5589 54.1997L49.522 41.6357H42.8882L36.5448 51.9406V41.6357H30.7666V67.3428H36.5448V56.8035L42.904 67.3428H49.7809Z" fill="#2DBE64"/>
<path d="M153.593 41.6357V60.6434C153.593 61.4994 153.252 62.153 152.541 62.153C151.537 62.153 151.49 60.8601 151.49 60.004H146.068C146.068 64.1174 148.171 67.9786 152.702 67.9786C156.652 67.9786 159.352 64.3731 159.352 59.9329V47.4258H167.167V67.3428H172.945V41.6357H153.593Z" fill="#2DBE64"/>
<path d="M75.7386 41.6357L67.7439 60.6043C66.2725 64.2097 63.2129 67.9786 58.0189 67.9786C53.6016 67.9786 49.4432 64.9557 48.698 58.3132H54.2962C54.7162 60.9702 56.3991 62.153 58.2778 62.153C59.8786 62.153 60.9648 61.0803 61.2711 60.4587L51.7386 41.6357H58.3883L64.4412 54.0683L69.4268 41.6357H75.7386Z" fill="#2DBE64"/>
<path d="M20.489 67.3428H5.11841V41.6357H19.0524C23.8107 41.6357 26.384 44.9677 26.384 48.9177C26.384 50.6831 25.5915 52.5054 24.3759 53.8694C26.1725 54.9244 27.7102 57.3292 27.7102 59.8406C27.707 64.2311 24.6506 67.3428 20.489 67.3428ZM10.764 62.1744H19.7281C21.1047 62.1744 21.9951 61.027 21.9951 59.6452V59.5919C21.9951 58.1888 21.0889 57.0628 19.7281 57.0628H10.764V62.1744ZM10.764 51.8873H18.3198C19.7912 51.8873 20.6816 50.7399 20.6816 49.3581C20.6816 47.955 19.8575 46.829 18.3198 46.829H10.764V51.8873Z" fill="#2DBE64"/>
<path d="M92.309 57.6952C91.4186 60.0432 89.5083 61.702 86.8403 61.702C83.086 61.702 80.8189 58.4056 80.8189 54.4911C80.8189 50.5766 83.086 47.2802 86.8403 47.2802C89.5115 47.2802 91.4186 48.9568 92.309 51.3226H98.5229C97.3578 45.4438 92.9721 41 86.8403 41C79.638 41 74.8481 47.1168 74.8481 54.4911V54.5089C74.8481 61.9009 79.638 68 86.8403 68C92.9721 68 97.3578 63.5776 98.5229 57.6952H92.309Z" fill="#2DBE64"/>
<path d="M139.27 41.6357L129.64 56.4944V41.6357H123.865V67.3428H129.122L138.768 52.5054V67.3428H144.546V41.6357H139.27Z" fill="#2DBE64"/>
<path d="M179.484 41.6357V59.0023C179.484 60.6043 178.675 61.5705 177.201 61.5705H175.502V67.325H178.562C182.591 67.325 185.262 64.4655 185.262 59.2403V47.408H191.103V67.325H196.881V41.6357H179.484Z" fill="#2DBE64"/>
</g>
<defs>
<clipPath id="clip0_50_459">
<rect width="192" height="27" fill="white" transform="translate(5 41)"/>
</clipPath>
</defs>
</svg>
