<svg width="200" height="100" viewBox="0 0 200 100" fill="none" xmlns="http://www.w3.org/2000/svg">
<g clip-path="url(#clip0_52_491)">
<mask id="mask0_52_491" style="mask-type:luminance" maskUnits="userSpaceOnUse" x="3" y="32" width="29" height="35">
<path d="M3 32H31.5294V67H3V32Z" fill="white"/>
</mask>
<g mask="url(#mask0_52_491)">
<path d="M17.2647 67C25.1429 67 31.5294 59.165 31.5294 49.5C31.5294 39.835 25.1429 32 17.2647 32C9.38653 32 3 39.835 3 49.5C3 59.165 9.38653 67 17.2647 67Z" fill="#FF5226"/>
<path d="M19.5757 60.5248V41.7881H17.784C16.4926 41.7881 15.5131 42.1241 14.8474 42.7973C14.1817 43.4459 13.8489 44.3104 13.8489 45.3919C13.8489 46.2086 13.9659 46.9051 14.2008 47.4814C14.4356 48.0578 14.7789 48.5863 15.2288 49.0669C15.6795 49.5476 16.2473 50.0761 16.9329 50.6524L18.6361 52.0571L13.6435 60.5259H9.8833L14.642 52.5984L16.874 55.0484L15.1118 53.6788C14.2257 52.9727 13.3816 52.1902 12.586 51.3373C11.8804 50.5673 11.3421 49.7273 10.9703 48.8149C10.5984 47.9014 10.412 46.8328 10.412 45.6078C10.412 43.4938 11.0292 41.7881 12.2627 40.4908C13.516 39.1701 15.3467 38.5098 17.7546 38.5098H23.0705V60.5248H19.5757Z" fill="white"/>
</g>
<path d="M48.2239 67C40.3546 67 33.9592 59.1845 33.9592 49.5315C33.9592 39.8773 40.3546 32 48.2239 32C56.0923 32 62.4886 39.8773 62.4886 49.5315C62.4886 59.1845 56.0923 67 48.2239 67Z" fill="#FF5226"/>
<path d="M46.0148 34.3682L30.1011 64.8298H37.396L46.5892 47.2715L46.3647 47.1467L43.8161 59.7117L49.212 60.8783L54.7581 52.3267L54.4576 52.1435L52.5842 61.8572L64.3411 59.1085L61.9428 54.2622L57.7052 55.4522L58.2054 56.158L60.1787 46.0138L55.5816 42.2432L49.5619 51.5298L49.8615 51.7142L52.334 39.5458L46.0148 34.3682Z" fill="#FFDD00"/>
<path d="M46.0148 34.3682L30.1011 64.8298H37.396L46.5892 47.2715L46.3647 47.1467L43.8161 59.7117L49.212 60.8783L54.7581 52.3267L54.4576 52.1435L52.5842 61.8572L57.3105 60.7523L60.1787 46.0138L55.5816 42.2432L49.5619 51.5298L49.8615 51.7142L52.334 39.5458L46.0148 34.3682Z" fill="#FFDD00"/>
<path d="M67.9568 60.525L76.8266 38.51H83.5814L84.9622 51.9138L91.8054 38.5088H98.5023V60.525H91.9529V48.7066L85.8723 60.525H79.3229L78.0609 48.5981L73.2433 60.525H67.9568ZM118.621 56.1651C118.621 56.9106 118.632 57.6433 118.651 58.3631C118.671 59.0841 118.71 59.7923 118.769 60.4888H112.688C112.544 60.1428 112.426 59.7812 112.336 59.4085C112.216 58.9151 112.138 58.4081 112.101 57.8953C111.475 58.8076 110.681 59.5636 109.722 60.1645C108.782 60.742 107.441 61.0301 105.698 61.0301C103.936 61.0301 102.526 60.525 101.468 59.517C100.431 58.5078 99.9126 57.1626 99.9126 55.4803C99.9126 53.9193 100.274 52.7188 100.999 51.8776C101.743 51.0131 102.898 50.4123 104.465 50.0763C106.031 49.7146 108.038 49.535 110.486 49.535H112.013V49.1383C112.013 48.3706 111.748 47.7815 111.22 47.3731C110.691 46.9648 109.702 46.7606 108.254 46.7606C106.824 46.7606 105.493 46.9893 104.259 47.4455C103.045 47.8771 102.056 48.31 101.292 48.7428V43.914C102.154 43.529 103.309 43.1451 104.759 42.7613C106.227 42.353 107.901 42.1488 109.781 42.1488C111.68 42.1488 113.285 42.3646 114.598 42.7975C115.91 43.2058 116.908 43.914 117.593 44.9231C118.279 45.9078 118.621 47.2775 118.621 49.031V56.1651ZM120.618 42.6901H126.699L127.051 45.7515C127.795 44.551 128.685 43.6748 129.724 43.1218C130.761 42.5688 131.956 42.2935 133.307 42.2935C134.834 42.2935 136.205 42.6295 137.419 43.3015C138.607 43.9464 139.609 45.0137 140.297 46.3651C141.003 47.7336 141.354 49.4638 141.354 51.5533C141.354 53.6428 141.003 55.3846 140.297 56.7776C139.612 58.1473 138.653 59.181 137.419 59.8763C136.185 60.574 134.775 60.9216 133.189 60.9216C132.054 60.9305 130.927 60.6735 129.87 60.1645C128.852 59.6371 127.971 58.8076 127.228 57.6795V65.1741H120.618V42.689V42.6901ZM160.504 51.5533C160.504 49.7753 160.896 48.1898 161.68 46.7968C162.482 45.4038 163.618 44.3118 165.086 43.5185C166.574 42.7018 168.327 42.2935 170.344 42.2935C172.439 42.2935 174.192 42.7368 175.601 43.6258C177.03 44.5148 178.029 45.776 178.597 47.4093C179.184 49.0426 179.262 50.977 178.832 53.2111H167.231C167.465 54.2436 167.985 55.0241 168.787 55.5526C169.61 56.0578 170.823 56.3098 172.429 56.3098C173.545 56.3098 174.583 56.1896 175.542 55.9481C176.445 55.7034 177.337 55.4032 178.215 55.0486V59.3361C177.373 59.8168 176.433 60.2006 175.396 60.4888C174.377 60.777 173.036 60.9216 171.372 60.9216C167.71 60.9216 164.979 60.0933 163.177 58.4355C161.395 56.7543 160.504 54.4606 160.504 51.5533ZM179.39 42.689H196.161V47.302H190.933V60.4888H184.324V47.302H179.39V42.689ZM142.617 42.689H149.226V50.76L155.482 42.689H161.18L155.364 50.1113L162.384 60.4888H154.395L149.226 52.6336V60.4888H142.617V42.689ZM170.374 46.329C169.472 46.329 168.758 46.6533 168.229 47.302C167.7 47.9261 167.358 48.7311 167.201 49.7158H173.016C172.997 48.7311 172.781 47.9261 172.371 47.3008C171.959 46.6533 171.293 46.329 170.374 46.329ZM134.6 51.5533C134.6 50.1113 134.276 48.9703 133.63 48.1303C133.004 47.2658 132.102 46.833 130.928 46.833C129.851 46.833 128.95 47.2413 128.226 48.058C127.501 48.8513 127.139 50.0156 127.139 51.5533C127.139 53.091 127.491 54.2798 128.197 55.121C128.921 55.9376 129.831 56.346 130.928 56.346C132.142 56.346 133.052 55.9131 133.659 55.0486C134.286 54.1841 134.6 53.0186 134.6 51.5533ZM112.013 52.8133H110.515C109.086 52.8133 108.058 52.9591 107.431 53.2473C106.824 53.5355 106.521 54.0873 106.521 54.904C106.521 55.6005 106.717 56.1173 107.108 56.4533C107.519 56.766 108.008 56.9223 108.577 56.9223C109.439 56.9223 110.143 56.7298 110.691 56.346C111.259 55.9376 111.7 55.4686 112.013 54.9401V52.8133Z" fill="black"/>
</g>
<defs>
<clipPath id="clip0_52_491">
<rect width="194" height="35" fill="white" transform="translate(3 32)"/>
</clipPath>
</defs>
</svg>
